<?xml version="1.0" encoding="UTF-8" standalone="no"?>
<svg
   xmlns:dc="http://purl.org/dc/elements/1.1/"
   xmlns:cc="http://creativecommons.org/ns#"
   xmlns:rdf="http://www.w3.org/1999/02/22-rdf-syntax-ns#"
   xmlns:svg="http://www.w3.org/2000/svg"
   xmlns="http://www.w3.org/2000/svg"
   version="1.1"
   id="svg4511"
   viewBox="0 0 1885.3047 2332.0095"
   height="658.1449mm"
   width="532.07489mm">
  <defs
     id="defs4513" />
  <metadata
     id="metadata4516">
    <rdf:RDF>
      <cc:Work
         rdf:about="">
        <dc:format>image/svg+xml</dc:format>
        <dc:type
           rdf:resource="http://purl.org/dc/dcmitype/StillImage" />
        <dc:title></dc:title>
      </cc:Work>
    </rdf:RDF>
  </metadata>
  <g
     transform="translate(360.88261,982.49489)"
     id="layer1">
    <path
       id="path5070"
       d="m -251,1329.5654 c 0,-21.7991 -2.2617,-53.376 -4.4452,-62.0603 -0.7605,-3.025 -2.0965,-8.3057 -2.9688,-11.7349 -0.8723,-3.4292 -1.586,-8.5434 -1.586,-11.365 0,-7.5002 -4.6125,-23.683 -7.9617,-27.9334 -1.5313,-1.9432 -3.0588,-4.8682 -3.3944,-6.5 -1.6654,-8.0965 -7.7352,-112.2789 -9.7712,-167.7154 -1.3132,-35.754 -0.6465,-53.53069 3.1762,-84.69069 1.1092,-9.0417 1.9683,-19.3917 1.9091,-23 -0.059,-3.6083 0.097,-12.8606 0.3459,-20.5606 1.0124,-31.2558 0.829,-84.0411 -0.3099,-89.2226 -2.068,-9.4083 1.2428,-32.8249 7.1674,-50.6939 7.009,-21.1393 18.863,-42.5782 50.9148,-92.0835 22.1798,-34.2576 24.465,-37.5 26.4287,-37.5 0.8208,0 5.5514,1.8277 10.5123,4.0615 6.2126,2.7973 9.7145,3.8517 11.2514,3.3876 8.3589,-2.5241 19.4475,-23.5707 22.2482,-42.2278 0.7841,-5.2234 1.6814,-9.7528 1.9939,-10.0654 0.8466,-0.8466 6.2895,2.3281 12.6711,7.3905 8.327,6.6059 10.3391,11.3128 10.2392,23.9536 -0.1045,13.2239 -1.7573,17.805 -15.8746,44 -21.1492,39.2426 -29.3295,56.9367 -36.4707,78.8871 -7.0202,21.5783 -10.3417,39.4952 -12.3983,66.8782 l -1.2568,16.7347 4.8249,0 c 4.4603,0 4.7467,0.1461 3.7897,1.9343 -0.5694,1.0638 -1.0352,2.9937 -1.0352,4.2885 0,1.2949 -0.9911,4.137 -2.2025,6.3158 -4.03862,14.83958 -1.97736,56.41398 4.259,79.3115 1.0288,3.6162 1.0019,4.5166 -0.1595,5.3367 -1.0504,0.7419 -0.8529,0.868 0.7962,0.5084 3.2184,-0.7018 4.5611,1.4652 8.8631,14.3048 4.2561,12.7024 16.8151,38.3854 25.8239,52.80939 4.731,7.5748 16.4046,23.7762 22.3373,31.0013 1.046,1.2738 1.9852,0.8904 6.6671,-2.7216 8.6328,-6.6603 13.9431,-12.9644 24.2629,-28.8043 5.2978,-8.13169 16.7015,-24.68479 25.3416,-36.78479 14.7017,-20.5892 18.0109,-25.5379 18.0109,-26.9343 0,-0.3111 -1.9125,-0.5346 -4.25,-0.4966 l -4.25,0.069 -6.4203,9.8958 c -7.6821,11.8407 -14.7144,20.9661 -16.157,20.9661 -1.1993,0 -5.6234,-9.441 -8.9036,-19 -4.2422,-12.3622 -4.0267,-12 -7.1404,-12 -2.3417,0 -2.8787,0.4314 -2.8787,2.3124 0,3.3844 5.0975,17.9024 9.9615,28.3713 l 4.2319,9.1082 -7.7912,12.298 c -13.5478,21.38469 -24.1822,34.23009 -27.8972,33.69759 -1.177,-0.1688 -4.9823,-4.2104 -9.2149,-9.7875 l -7.2099,-9.5 -0.04,-33.16669 c -0.027,-22.6799 -0.3792,-33.2797 -1.1124,-33.5241 -1.6699,-0.5566 -1.8466,-99.8094 -0.1777,-99.8093 0.9891,10e-5 1.25,-15.969 1.25,-76.5124 l 0,-76.5125 7.3565,-14.7375 c 9.3948,-18.821 12.818,-29.0854 13.5663,-40.6787 l 0.5772,-8.9411 7.5,-3.7543 7.5,-3.7543 354.1849,-0.054 c 237.968,-0.037 355.0633,0.2794 356.862,0.9632 2.145,0.8156 2.5501,1.4615 2.0382,3.25 -2.1595,7.546 -2.619,13.0436 -1.5849,18.964 2.5265,14.4639 5.8401,21.9739 25.9938,58.9129 l 16.006,29.3367 0,56.7593 c 0,31.2176 0.3375,56.7591 0.75,56.759 0.7581,-4e-4 1.0198,11.8882 0.9244,42.0003 -0.059,18.7261 -0.058,18.8084 0.8842,40.4211 0.5833,13.385 0.4607,16.093 -0.7696,17 -1.0889,0.8028 -1.6302,4.4059 -2.115,14.0789 -0.638,12.7294 -0.7426,13.1886 -5.0282,22.0608 -7.4963,15.5192 -26.0935,44.95469 -31.4414,49.76529 -1.9848,1.7854 -2.1227,1.7425 -6.1772,-1.9205 -8.5158,-7.6935 -45.2356,-62.17709 -42.7895,-63.48969 0.6943,-0.3725 8.2373,-0.9188 16.7623,-1.2139 16.8509,-0.5834 21.5443,-1.5438 27.2084,-5.5675 3.7198,-2.6426 9.3218,-11.271 8.1066,-12.4862 -0.3566,-0.3565 -1.8479,-0.6483 -3.3141,-0.6483 -1.9827,0 -3.2873,0.961 -5.0911,3.75 -3.4662,5.3597 -6.6954,6.1279 -26.0348,6.1936 -17.0983,0.058 -23.2562,-0.5179 -22.288,-2.0844 0.305,-0.4935 2.8424,-2.0566 5.6386,-3.4735 3.804,-1.9277 4.7303,-2.8002 3.6792,-3.4657 -0.7726,-0.4891 -8.035,-0.8963 -16.1385,-0.9047 l -14.7336,-0.0158 11.6097,15.6278 c 6.3854,8.5952 17.7059,24.6827 25.1566,35.75 17.98,26.70729 25.2294,35.91109 32.5025,41.26529 4.9074,3.6126 6.2725,4.2029 7.2871,3.1511 2.4837,-2.5747 17.4518,-24.0547 23.0432,-33.0683 7.8216,-12.60869 19.4044,-35.36749 23.4388,-46.05449 2.5383,-6.7238 3.9665,-9.1563 5.9903,-10.2029 2.5853,-1.3369 4.3142,-4.366 5.4044,-9.4685 0.376,-31.14882 9.42974,-51.98327 9.5347,-80.4242 0,-6.513 -0.395,-8.8209 -1.8298,-10.6909 -2.8197,-3.6751 -3.3801,-5.8849 -1.4923,-5.8849 1.4465,0 1.552,-1.7479 1.0109,-16.75 -0.865,-23.9817 -4.3049,-43.4105 -11.8826,-67.1134 -5.7046,-17.8439 -12.0303,-32.0675 -26.7447,-60.1366 -17.9319,-34.2068 -20.7136,-39.9215 -23.5603,-48.4018 -6.5149,-19.4073 -0.3924,-35.7227 16.2672,-43.3497 2.9478,-1.3496 5.6376,-2.1759 5.9772,-1.8362 0.3397,0.3396 0.5053,3.0408 0.3681,6.0025 -0.4168,8.9984 7.701,30.2389 15.7977,41.3352 2.7081,3.7113 3.5757,4.2454 6.8449,4.2136 2.0948,-0.02 7.7078,-1.7693 12.7437,-3.9707 l 9,-3.9341 3.0569,3.5385 c 3.5435,4.1018 39.8975,60.312 52.3238,80.9027 18.6275,30.8659 25.6764,50.9383 29.285,83.391 1.108,9.9646 7.01995,13.68983 5.42915,24.43923 -0.87322,32.81615 -3.185,33.13507 -2.87755,69.25127 0,0 -2.7213,37.9185 -1.3181,48.9185 3.4597,27.1213 4.0345,47.65539 2.6875,95.99999 -1.6685,59.8792 -4.3814,111.3637 -8.1572,154.803 1.47184,44.1841 -15.88406,93.795 -15.9239,125.447 l -0.01,19.25 -106.5,0 -106.5,0 0,-12.75 c 0,-8.2269 -0.9476,-19.6677 -2.6636,-32.25 -9.48524,-73.5894 -9.46488,-157.3149 -24.8901,-217.6405 -9.1145,-33.2562 -17.7121,-51.8752 -47.9237,-103.78309 -9.0801,-15.6009 -18.3675,-32.2378 -20.6385,-36.9708 l -4.1293,-8.6056 -9.6253,0.01 -9.6253,0.01 4,2.4646 c 2.2,1.3555 5.4625,2.9631 7.25,3.5724 8.2282,2.805 1.7125,3.9273 -22.885,3.9418 l -18.635,0.011 -1.7534,-2.676 c -2.8146,-4.2956 -6.5867,-7.324 -9.1227,-7.324 -3.3434,0 -2.9804,2.5786 1.1566,8.2169 6.387,8.705 14.2697,10.7403 41.6953,10.7657 l 18.7059,0.017 4.1401,7.0888 c 7.9938,13.6872 8.6844,15.9982 9.387,31.4112 1.0055,22.06039 3.0156,29.17979 9.96,35.27709 3.5778,3.1413 6.7386,3.9692 17.0949,4.4777 l 4.9937,0.2452 6.3719,15.8343 c 4.7215,11.733 6.0804,16.1259 5.2465,16.9598 -0.7657,0.7658 -13.6677,1.3937 -40.3656,1.9646 -44.0779,0.9426 -460.2232,0.592 -461.2036,-0.3885 -0.9258,-0.9261 10.4045,-28.6902 12.8853,-31.5743 1.977,-2.2984 3.0269,-2.5196 15.7059,-3.3082 31.788,-1.9771 57.4183,-13.0524 79.7281,-34.4517 15.1585,-14.53999 26.7265,-32.81319 32.5786,-51.46219 2.839,-9.047 2.7694,-11.0738 -0.3801,-11.0738 -2.6157,0 -4.2592,2.6529 -8.0536,13 -12.3471,33.6697 -38.9806,59.68699 -72.5805,70.90119 -14.5318,4.8501 -39.0946,7.6427 -40.1057,4.5597 -0.1874,-0.5715 1.6498,-1.5715 4.0826,-2.2222 5.5811,-1.4927 8.8483,-5.3772 19.125,-22.7387 12.7799,-21.59029 12.8733,-21.81729 12.9548,-31.49999 0.068,-8.1266 0.3011,-8.9787 5.2972,-19.3975 2.8742,-5.9936 5.2258,-11.3096 5.2258,-11.8134 0,-0.5037 -1.4317,-0.7748 -3.1815,-0.6025 -2.9373,0.2894 -3.6335,1.1572 -9.0753,11.3134 -3.2417,6.05 -12.9295,23.15 -21.5285,38 -30.6464,52.92459 -41.1686,77.31409 -49.6554,115.09689 -3.8839,17.2911 -12.3454,80.0159 -14.0838,104.4031 -0.5323,7.4677 -1.1744,10.2735 -3.0016,13.1156 -1.2785,1.9887 -2.8184,5.4499 -3.422,7.6916 -6.240847,35.1889 4.896359,73.0386 4.9486,104.7579 l 0,17.4349 -108,0 -108,0 0,-19.9397 z M 17.5,964.74961 c 3.3236,-1.678 21.1976,-19.191 23.934,-23.4505 0.9561,-1.4883 1.4491,-3.1742 1.0954,-3.7464 -1.1169,-1.8072 -6.0082,1.5349 -16.0294,10.9524 -11.9263,11.2078 -14.2779,12.545 -18.7369,10.6538 -1.7947,-0.7612 -6.8631,-4.6456 -11.2631,-8.632 -10.205,-9.2457 -15.3232,-13.0218 -17.65,-13.0218 -2.8197,0 -2.282,1.3794 3.0007,7.6981 7.7999,9.3293 19.5624,19.4249 25.1493,21.5853 1.9879,0.7687 6.7834,-0.1625 10.5,-2.0389 z m 477.2116,-0.2522 c 8.1879,-4.6959 26.2884,-22.6543 26.2884,-26.0821 0,-0.5006 -1.0905,-0.9102 -2.4233,-0.9102 -2.7332,0 -5.552,2.1384 -17.2683,13.0998 -12.7238,11.904 -14.4845,11.9385 -26.3084,0.515 -10.7112,-10.3485 -15.0877,-13.6148 -18.2421,-13.6148 l -2.8822,0 3.3122,4.6941 c 8.3047,11.7699 24.7957,25.3325 30.7584,25.2965 0.8545,-0.01 3.8989,-1.3544 6.7653,-2.9983 z M 205.5,950.55111 l 5,-0.7788 -5,-0.2201 c -2.75,-0.1211 -14.225,-0.2937 -25.5,-0.3836 -22.0491,-0.1759 -23.7782,-0.5315 -26.4412,-5.4386 l -1.4787,-2.7249 -0.04,2.5589 c -0.08,5.0871 1.9735,6.3258 11.6072,7.0024 12.8013,0.8992 36.0362,0.8907 41.8527,-0.015 z m 77.8663,-4.7326 c 5.1637,-4.7873 6.1798,-5.3747 6.4252,-3.7144 0.1603,1.0847 1.2853,3.2159 2.5,4.7362 3.1628,3.9583 12.2219,5.0274 37.0466,4.3718 19.0643,-0.5034 19.9358,-0.6152 22.345,-2.8654 3.1728,-2.9635 5.5448,-7.4761 5.077,-9.6587 -0.2714,-1.2663 -0.7585,-0.9351 -1.9675,1.3379 -0.8838,1.6614 -2.7831,4.1969 -4.2206,5.6344 -3.4892,3.4893 -12.0829,4.2783 -36.2212,3.3256 l -18.3023,-0.7224 -2.5556,-4.3608 c -4.2149,-7.1921 -8.6249,-8.4107 -10.8827,-3.0071 -2.2598,5.4086 -5.7503,6.1137 -30.1102,6.0831 -23.3691,-0.029 -25.3713,-0.4462 -28.6234,-5.9582 -2.3067,-3.9096 -5.2333,-4.5859 -6.8414,-1.5811 -1.4699,2.7464 -1.2846,4.0657 0.5709,4.0657 0.8833,0 3.4108,1.4294 5.6166,3.1764 2.2058,1.747 5.6455,3.4952 7.6439,3.885 1.9984,0.3897 13.2482,0.7604 24.9997,0.8236 l 21.3664,0.115 z m -194.9448,-2.3699 c 3.0231,-1.1311 6.5274,-2.9161 7.7875,-3.9667 2.2814,-1.9022 2.2417,-1.9104 -9.459,-1.9435 -10.7663,-0.031 -11.75,0.1212 -11.75,1.8117 0,2.4827 3.8191,5.7 7.2125,6.0761 0.3919,0.043 3.1859,-0.8465 6.209,-1.9776 z m 99.846,-1.6856 c 1.0525,-0.9525 3.1104,-2.2636 4.5731,-2.9136 2.2085,-0.9815 0.2856,-1.1888 -11.3406,-1.223 -12.9603,-0.038 -13.7958,0.07 -11.25,1.4507 1.5125,0.8205 2.75,1.942 2.75,2.4922 0,3.2077 11.772,3.3571 15.2675,0.1937 z M 326.5,939.00511 c 0,-0.55 -1.4625,-1.141 -3.25,-1.3134 -2.4632,-0.2375 -3.25,0.081 -3.25,1.3134 0,1.2329 0.7868,1.5509 3.25,1.3134 1.7875,-0.1724 3.25,-0.7634 3.25,-1.3134 z m -428.1377,-25 c 0.3025,-18.726 0.6228,-22.1035 2.9586,-31.1905 3.3398,-12.9929 8.3148,-25.3192 14.1122,-34.9646 2.5118,-4.179 4.5669,-7.7662 4.5669,-7.9715 0,-0.2054 -11.925,-0.3734 -26.5,-0.3734 l -26.5,0 0,48.0254 0,48.0254 15.5116,-0.2754 15.5115,-0.2754 z m 34.3736,20.0412 c 0.1298,-0.099 -3.5563,-2.2913 -8.1912,-4.8722 -4.635,-2.5809 -10.0907,-6.2614 -12.1239,-8.1789 l -3.6966,-3.4864 0.6807,6.6438 c 0.8364,8.1641 1.814,10.1063 5.3447,10.6187 2.4168,0.3507 17.3651,-0.2518 17.9863,-0.725 z m 38.0641,0.2588 c 0.66,-0.66 1.2,-2.5969 1.2,-4.3042 0,-3.5605 3.3769,-9.2231 12.8014,-21.4657 8.6946,-11.2946 9.1245,-11.9616 5.8199,-9.0301 -3.2287,2.8641 -16.8512,18.427 -24.4598,27.9439 -3.7061,4.6356 -4.8025,6.6659 -3.9067,7.2347 1.8988,1.2058 7.1955,0.9711 8.5452,-0.3786 z m 65.5278,-2.1631 c 1.4109,-1.8498 3.5758,-5.4432 4.8109,-7.9854 2.1531,-4.4319 2.1774,-4.7654 0.5888,-8.0966 -2.4876,-5.2166 -14.9382,-17.8075 -20.722,-20.9554 -6.329,-3.4447 -6.2657,-3.479 -19.0311,10.3215 -15.2783,16.5171 -20.7019,24.7515 -18.0496,27.4038 1.8032,1.8032 9.0038,2.4213 29.7065,2.55 l 20.1313,0.1252 z m 19.3992,0.6571 c 1.3672,-2.0867 1.773,-4.776 1.773,-11.75 0,-7.7974 -0.3828,-9.8614 -2.7771,-14.9741 -5.0562,-10.7967 -14.4425,-19.5638 -22.7174,-21.2188 -3.1373,-0.6274 -2.7347,-0.064 6.2464,8.7391 7.7505,7.5971 10.2883,10.8492 13.1739,16.8816 1.9658,4.1095 3.5742,8.2855 3.5742,9.2801 0,0.9946 -1.125,4.4812 -2.5,7.7481 -1.375,3.2669 -2.5,6.4033 -2.5,6.9699 0,2.1099 4.0165,0.9345 5.727,-1.6759 z m 16.0551,-24.8093 0.8039,-24.7318 2.7628,-2.3765 c 1.84,-1.5827 3.9965,-2.3723 6.457,-2.3642 7.7788,0.026 37.2703,15.5257 47.5235,24.9771 l 5.955,5.4893 -0.7268,-6.7858 c -1.7255,-16.113 -8.8777,-35.4126 -19.4822,-52.5709 l -6.2556,-10.1219 -27.9099,0 c -15.3504,0 -27.9098,0.17 -27.9098,0.3779 0,0.2078 0.675,1.9934 1.5,3.9679 2.08,4.9781 1.9308,11.9006 -0.3162,14.6756 -2.3017,2.8424 -11.6641,3.8619 -35.1838,3.8313 -20.0184,-0.026 -27.807,-0.8683 -29.5051,-3.1906 -2.0644,-2.8232 -2.5467,-9.0267 -1.1271,-14.4991 l 1.3392,-5.163 -27.6343,0 -27.6344,0 -6.078,9.75 c -7.5123,12.0507 -9.4102,15.7864 -12.7518,25.0993 -2.3125,6.4446 -7.6085,29.5781 -7.6085,33.2346 0,0.7329 1.9125,-0.5176 4.25,-2.779 5.8925,-5.7003 14.861,-11.2861 31.25,-19.4631 12.2873,-6.1305 14.5249,-6.9295 18.2906,-6.5316 7.4533,0.7874 10.1928,5.3919 10.2038,17.1501 l 0.01,5.9603 8.25,-8.5963 c 14.6351,-15.2493 23.8206,-19.305 43.75,-19.3169 11.5028,-0.01 12.9602,0.2082 18.2683,2.6956 3.2242,1.5109 8.1625,5.0974 11.1971,8.132 11.3763,11.3762 15.7889,22.1101 15.4837,37.665 -0.1024,5.225 -0.1192,10.4 -0.037,11.5 0.1314,1.7626 0.2629,1.8051 1.1077,0.3583 0.5273,-0.9029 1.3205,-12.7711 1.7626,-26.3736 z m 39.4679,12.1937 c 6.4625,-3.8959 11.75,-7.3437 11.75,-7.6618 0,-1.8976 -38.5896,-23.7606 -39.8005,-22.549 -0.9455,0.9461 -0.8962,41.5518 0.053,43.8713 0.6904,1.6867 1.394,1.4906 8.5,-2.3691 4.261,-2.3143 13.0347,-7.3955 19.4972,-11.2914 z m 20.9722,13.4326 c 0.9465,-0.859 3.1963,-16.0259 2.4829,-16.7392 -0.3023,-0.3023 -2.2584,1.3418 -4.3469,3.6535 -2.0885,2.3117 -7.3962,6.2892 -11.7948,8.8389 l -7.9974,4.6358 5.967,0.5918 c 6.3149,0.6263 14.4807,0.1158 15.6892,-0.9808 z m 17.722,-21.9021 c 0.6184,-24.2569 1.1101,-26.1529 7.2704,-28.0333 5.2447,-1.6009 21.9831,-2.1488 39.2854,-1.286 12.6875,0.6328 16.6378,1.1763 19.0807,2.6253 3.0206,1.7917 3.1706,1.7839 7.6805,-0.3993 4.3849,-2.1227 5.7836,-2.2267 29.9427,-2.2267 13.9386,0 26.2324,0.3321 27.3195,0.738 1.0872,0.4059 3.1297,1.5782 4.5391,2.605 2.5309,1.844 2.6243,1.8349 7.5905,-0.7417 4.9971,-2.5926 5.1812,-2.6096 29.9375,-2.7612 22.9024,-0.1403 25.2318,0.01 28.9095,1.8092 2.2848,1.1206 4.5968,3.2189 5.3917,4.8936 1.1694,2.4635 2.7119,24.5601 3.0588,43.8182 0.05,2.7469 0.058,2.75 7.4245,2.75 l 7.375,0 0.625,-3.125 c 0.3437,-1.7187 0.6319,-13.9812 0.6403,-27.25 0.01,-13.2687 0.3459,-24.6021 0.75,-25.1853 0.4041,-0.5831 3.5433,-3.6206 6.976,-6.75 l 6.2413,-5.6897 23.7587,0.054 c 30.37,0.069 38.0529,0.8385 43.0678,4.3138 2.0891,1.4478 4.1156,2.6323 4.5032,2.6323 0.3876,0 -0.6156,-2.3625 -2.2294,-5.25 -3.0067,-5.3798 -5.0723,-13.9653 -5.0965,-21.1837 -0.01,-2.2364 -0.285,-5.0788 -0.6167,-6.3163 l -0.603,-2.25 -164.3833,0 c -90.4109,-1e-4 -164.3834,0.1645 -164.3834,0.3657 0,0.2012 2.8602,5.9676 6.356,12.8143 11.2281,21.9906 13.3798,30.7643 14.6056,59.5568 0.4973,11.6803 1.2101,21.732 1.5841,22.3371 2.0323,3.2883 2.8766,-2.3924 3.3985,-22.8651 z m 10.5558,10.6128 c 0.55,-6.973 1.3375,-13.0105 1.75,-13.4166 0.4125,-0.4062 0.75,-2.8133 0.75,-5.3493 0,-7.9503 5.0313,-12.2587 11.5591,-9.8983 3.0072,1.0874 3.6798,0.949 7.1831,-1.4789 5.13,-3.5551 10.9232,-3.6448 14.6118,-0.2263 2.1602,2.002 2.646,3.3422 2.646,7.3 0,2.6662 -0.5572,5.4049 -1.2382,6.0859 -0.9843,0.9843 -0.5741,1.7579 2,3.7725 2.0656,1.6166 3.2382,3.4133 3.2382,4.9618 0,2.8505 0.7315,3.0043 3.8618,0.8118 3.4965,-2.4491 4.4321,-0.6129 5.1359,10.08 0.3435,5.2203 0.8935,9.7603 1.2222,10.0889 1.4541,1.4542 2.1295,-5.2356 2.0751,-20.5532 -0.065,-18.3559 -1.148,-23.6123 -5.295,-25.7075 -3.1399,-1.5863 -43.6893,-1.7842 -49.2484,-0.2404 -6.4507,1.7915 -7.2229,4.5064 -7.2384,25.4479 -0.01,9.9 0.3223,18.8191 0.7323,19.8201 0.479,1.1693 1.5517,1.7057 3,1.5 2.1417,-0.3041 2.3045,-0.9546 3.2545,-12.9984 z m 158.75,11.6934 c 2.5965,-1.0817 2.1345,-2.1155 -1.3982,-3.1287 -1.7316,-0.4966 -4.0555,-2.118 -5.1643,-3.6032 -2.2475,-3.0102 -3.3412,-11.4852 -2.2398,-17.3559 l 0.6876,-3.6655 8.9323,0.4271 8.9324,0.4271 0,-5.8146 c 0,-4.9559 -0.3692,-6.1356 -2.5,-7.9883 -3.1579,-2.7458 -3.1643,-3.8131 -0.023,-3.8131 3.2107,0 5.3291,3.2814 6.1748,9.565 0.3652,2.7142 1.316,5.9416 2.1127,7.172 1.0477,1.618 1.3487,4.4355 1.0877,10.1825 -0.3982,8.7678 -2.1998,12.4381 -7.3419,14.9569 -2.5881,1.2677 -2.664,1.4581 -0.961,2.4111 2.3346,1.3065 26.0105,2.2772 26.6389,1.0921 0.8542,-1.6109 -0.95,-36.813 -2.1061,-41.0903 -0.9885,-3.6576 -1.6269,-4.3465 -4.86,-5.2444 -2.0471,-0.5686 -13.1721,-1.0356 -24.7221,-1.0378 -31.1112,-0.01 -30.3535,-0.737 -30.4435,29.3756 l -0.056,18.8828 12.75,-0.5107 c 7.0125,-0.2808 13.5375,-0.8387 14.5,-1.2397 z M 314,896.49061 c 0,-0.5966 0.6866,-2.4125 1.5257,-4.0352 1.0804,-2.0892 2.2651,-2.9503 4.059,-2.9503 1.7393,0 2.3104,0.3918 1.8222,1.25 -2.1951,3.8585 -7.4069,7.8942 -7.4069,5.7355 z m 97,38.5855 c 0,-0.2359 -3.354,-2.5193 -7.4532,-5.0743 -4.0993,-2.555 -9.3645,-6.1578 -11.7004,-8.0063 -2.3359,-1.8484 -4.6069,-3.1384 -5.0467,-2.8666 -0.4399,0.2718 -0.7997,4.0677 -0.7997,8.4352 l 0,7.941 12.5,0 c 6.875,0 12.5,-0.193 12.5,-0.429 z m 36.4788,-0.5367 c 0.3283,-0.5311 -0.3202,-2.7632 -1.441,-4.9602 -5.2607,-10.3118 -0.9192,-21.7514 13.5285,-35.6475 5.1886,-4.9904 9.4337,-9.3506 9.4337,-9.6893 0,-0.3388 -2.1375,0.1056 -4.75,0.9875 -5.9116,1.9955 -17.8246,13.5571 -21.1638,20.5395 -4.0408,8.4494 -4.045,23.256 -0.01,27.5894 2.1753,2.3348 3.4721,2.6828 4.4005,1.1806 z m 65.0192,-1.0326 c 4.0063,-3.325 0.01,-10.1561 -15.2882,-26.1187 -5.768,-6.0194 -11.7593,-11.8502 -13.314,-12.9572 -2.7069,-1.9275 -2.9659,-1.9409 -6.1068,-0.3167 -4.1674,2.155 -15.1441,12.6331 -18.8435,17.9874 -4.3472,6.2919 -4.5542,8.5145 -1.3422,14.416 4.5849,8.4239 6.9041,9.0144 33.6447,8.5665 13.8711,-0.2323 20.1949,-0.7017 21.25,-1.5773 z m 23.8979,1.1667 c 0.2827,-0.4574 -5.6445,-8.1335 -13.1716,-17.0581 -7.527,-8.9247 -13.8398,-15.7638 -14.0284,-15.1981 -0.4,1.2001 2.9579,5.8881 11.0267,15.3948 5.2801,6.221 5.7774,7.2181 5.7774,11.5833 0,2.627 0.3,5.0764 0.6667,5.443 0.9607,0.9608 9.119,0.8225 9.7292,-0.1649 z m 53.8541,-14.8465 c 5.9125,-3.5472 10.75,-6.8542 10.75,-7.3488 0,-0.9519 -16.4345,-10.9536 -30.4563,-18.5351 -6.2179,-3.3619 -8.5707,-4.2033 -9.1469,-3.271 -0.9962,1.6118 -0.9744,42.0893 0.023,43.7039 0.8369,1.3542 10.1897,-3.3658 28.8298,-14.549 z m 22.6772,14.2658 c 0.8113,-0.9775 0.9607,-3.7456 0.4852,-8.9924 l -0.6869,-7.58 -3.7884,3.4226 c -2.0837,1.8824 -7.5344,5.5915 -12.1128,8.2424 l -8.3243,4.8197 7,0.5734 c 13.0738,1.071 16.2078,0.9836 17.4272,-0.4857 z M 653,887.50511 l 0,-48 -54.3972,0 -54.3972,0 -0.3893,12.25 c -0.4442,13.9766 -2.2524,19.0446 -8.0352,22.5208 -4.6773,2.8116 -7.7803,3.4189 -21.0159,4.1134 l -11.7348,0.6158 14.9334,15.5 c 12.6483,13.1281 14.9438,15.1174 15.0011,13 0.2715,-10.0358 2.1715,-25.363 3.4507,-27.8368 0.8425,-1.6291 3.9061,-5.065 6.8081,-7.6352 l 5.2763,-4.6732 29.5,0.3813 c 33.078,0.4275 33.9046,0.5818 40.1422,7.4945 5.0936,5.645 5.8578,10.4267 5.8578,36.652 0,12.2562 0.3,22.5841 0.6667,22.9507 0.3666,0.3667 6.8916,0.6667 14.5,0.6667 l 13.8333,0 z m -425.6303,44.75 c 0.3316,-1.2375 0.6091,-7.9875 0.6167,-15 0.019,-18.1254 -1.2641,-17.2459 23.9166,-16.3898 10.7784,0.3664 21.172,1.0157 23.097,1.443 l 3.5,0.7767 0.2754,15.7101 c 0.3951,22.5389 2.2246,20.3672 2.2246,-2.6408 0,-19.7938 -0.7112,-23.741 -4.5968,-25.5114 -3.331,-1.5177 -40.945,-1.5421 -45.2844,-0.029 -1.7488,0.6096 -3.7849,2.2971 -4.5248,3.75 -1.9711,3.8705 -2.8645,16.5685 -2.0501,29.1351 0.6912,10.6644 1.578,13.4125 2.8258,8.7565 z m -25.4553,-8.25 c -0.03,-3.85 -0.4417,-7.9 -0.9144,-9 -0.5554,-1.2924 -0.8789,1.7149 -0.9144,8.5 -0.037,7.1259 0.2565,10.018 0.9144,9 0.5332,-0.825 0.9446,-4.65 0.9144,-8.5 z m 8.0856,0.5 c 0,-4.6667 -0.4167,-8 -1,-8 -0.5833,0 -1,3.3333 -1,8 0,4.6667 0.4167,8 1,8 0.5833,0 1,-3.3333 1,-8 z m 67.1877,-1.25 c 0.6974,-14.0145 0.1176,-17.6834 -2.9806,-18.8613 -1.4135,-0.5375 -11.3771,-1.2498 -22.1415,-1.583 -17.3775,-0.538 -19.7239,-0.4224 -20.9305,1.0315 -2.5146,3.0299 -0.6675,4.6628 5.2745,4.6628 3.0098,0 5.7611,0.4672 6.114,1.0382 0.3529,0.571 0.068,3.2772 -0.6336,6.0138 -1.1694,4.5627 -1.0933,5.3499 0.9174,9.4885 2.8531,5.8726 2.7926,6.2583 -1.0574,6.7361 -1.7875,0.2218 5.3512,0.4753 15.8637,0.5634 l 19.1138,0.16 z m -14.6549,6.5 c 3.6191,-8.4811 3.9163,-10.122 2.6743,-14.7656 -0.6806,-2.5445 -0.979,-5.0444 -0.6632,-5.5554 0.3158,-0.5109 3.0226,-0.929 6.0151,-0.929 l 5.441,0 0,11.5 0,11.5 -7.107,0 c -6.3864,0 -7.0313,-0.1774 -6.3602,-1.75 z m -14.0783,-4.7045 c -2.7032,-2.7032 -3.4194,-9.1806 -1.2545,-11.3455 0.66,-0.66 3.5692,-1.2 6.4648,-1.2 5.8834,0 7.3352,1.3814 7.3352,6.9797 0,3.8601 -3.8903,8.0203 -7.5,8.0203 -1.425,0 -3.6955,-1.1045 -5.0455,-2.4545 z m -294.0302,-1.5524 c 2.5956,-3.3038 5.137,-7.4634 5.6475,-9.2434 1.2972,-4.5231 1.206,-24.7497 -0.1116,-24.7497 -3.6012,0 -39.2942,21.4979 -38.6921,23.3042 0.4124,1.2372 25.6829,16.6587 27.3344,16.6809 0.6063,0.01 3.2262,-2.6882 5.8218,-5.992 z m 474.6896,-4.6677 c 0.5267,-8.5934 1.1388,-11.207 4.3137,-18.4198 2.0349,-4.6231 3.9443,-8.9681 4.2431,-9.6556 0.2988,-0.6875 0.1387,-1.25 -0.3557,-1.25 -2.135,0 -38.315,21.7123 -38.315,22.9936 0,1.6052 26.7217,17.2296 28.5,16.6641 0.55,-0.1749 1.2762,-4.8244 1.6139,-10.3323 z m 120.0043,9.4246 c 0.065,-0.1375 0.4089,-9.925 0.7641,-21.75 0.561,-18.6737 0.8919,-21.8656 2.5172,-24.2812 2.4299,-3.6112 1.2832,-4.7088 -1.8471,-1.768 -5.1974,4.8827 -5.9502,8.1936 -5.923,26.0492 0.024,15.9633 0.9425,22 3.3458,22 0.5637,0 1.078,-0.1125 1.143,-0.25 z m -343.4559,-4 c -0.2774,-0.6875 -0.5044,-0.125 -0.5044,1.25 0,1.375 0.227,1.9375 0.5044,1.25 0.2774,-0.6875 0.2774,-1.8125 0,-2.5 z m -7.0944,-12.6401 c -0.8272,-1.3384 -21.6489,-2.4408 -27.7417,-1.4688 l -5.3262,0.8497 7.5,0.5744 c 12.6176,0.9665 26.1522,0.9901 25.5679,0.045 z M 181,907.56411 c 0,-1.1798 -1.9504,-2.442 -2.6667,-1.7257 -0.7163,0.7163 0.5459,2.6667 1.7257,2.6667 0.5176,0 0.941,-0.4234 0.941,-0.941 z m 432.7161,-8.0109 c -0.6034,-9.3126 -2.8785,-16.2971 -6.2048,-19.0481 -2.4433,-2.0208 -36.9785,-2.9017 -36.3201,-0.9265 0.2277,0.6832 6.9153,5.0296 14.8614,9.6587 15.2205,8.8669 24.7062,15.4756 25.6161,17.8468 0.2999,0.7815 1.0137,1.421 1.5863,1.421 0.6871,0 0.8438,-3.044 0.4611,-8.9519 z m -204.6059,-7.4195 c 7.3644,-4.3293 15.1898,-9.0543 17.3898,-10.5 l 4,-2.6286 -15,-0.296 c -8.25,-0.1627 -16.3826,-0.045 -18.0724,0.262 -4.0429,0.7342 -9.1338,5.8159 -10.4025,10.3836 -1.1169,4.0211 -1.3955,16.4467 -0.3913,17.4509 0.3486,0.3486 2.5358,-1.0389 4.8603,-3.0833 2.3245,-2.0445 10.2518,-7.2593 17.6161,-11.5886 z m -236.2906,10.1997 c -0.3962,-2.6925 -2.3567,-3.477 -3.1996,-1.2803 -0.7833,2.041 0.038,3.452 2.0086,3.452 0.9817,0 1.3986,-0.7602 1.191,-2.1717 z m 18.6804,-2.8283 c 0,-1.8327 -0.6017,-2.5854 -2.2545,-2.8201 -2.4571,-0.3489 -3.8526,1.7956 -2.857,4.3902 0.3614,0.9418 1.5047,1.4421 2.857,1.25 1.6528,-0.2347 2.2545,-0.9874 2.2545,-2.8201 z m -4.0411,0.9335 c -0.9204,-1.4892 0.1467,-2.2988 2.0613,-1.5641 0.8836,0.3391 1.3265,1.0697 0.9842,1.6235 -0.8106,1.3116 -2.2151,1.2841 -3.0455,-0.059 z m -460.7155,-35.1402 c -0.1903,-4.0116 -0.3473,-0.9938 -0.3488,6.7062 0,7.7 0.1541,10.9822 0.3459,7.2938 0.1919,-3.6885 0.1932,-9.9885 0,-14 z M 448,880.00511 c 0,-0.825 -0.45,-1.5 -1,-1.5 -0.55,0 -1,0.675 -1,1.5 0,0.825 0.45,1.5 1,1.5 0.55,0 1,-0.675 1,-1.5 z m 76.6849,-13.5613 c 3.3653,-1.2688 9.4504,-6.9108 8.723,-8.0878 -0.2829,-0.4576 -1.8784,0.1762 -3.5456,1.4085 -2.9687,2.1943 -3.6033,2.2404 -30.6968,2.2324 -21.0882,-0.01 -28.2208,-0.3227 -30.0012,-1.331 -1.2846,-0.7276 -2.5721,-1.0863 -2.8612,-0.7972 -0.9203,0.9203 4.8977,5.6275 8.1068,6.559 4.4672,1.2968 46.8422,1.3103 50.275,0.016 z m -713.0226,-3.1887 c -0.2774,-0.6875 -0.5044,-0.125 -0.5044,1.25 0,1.375 0.227,1.9375 0.5044,1.25 0.2774,-0.6875 0.2774,-1.8125 0,-2.5 z m -0.955,-10.9883 c -0.2392,-1.244 -0.444,-0.4617 -0.4551,1.7383 -0.011,2.2 0.1846,3.2177 0.4349,2.2617 0.2503,-0.9561 0.2593,-2.7561 0.02,-4 z m 233.5639,-1.3662 c 0.3325,-0.3325 -0.5863,-3.0325 -2.0417,-6 l -2.6461,-5.3955 -17.7749,0 -17.7748,0 -2.5169,4.9668 c -1.3842,2.7317 -2.5168,5.4317 -2.5168,6 0,1.1133 44.1683,1.5316 45.2712,0.4287 z m 478.2056,-0.358 c 0.3272,-0.5294 -0.5538,-3.2294 -1.9578,-6 l -2.5527,-5.0375 -17.9663,0 -17.9663,0 -2.5527,5.0375 c -1.404,2.7706 -2.285,5.4706 -1.9578,6 0.3518,0.5692 9.5358,0.9625 22.4768,0.9625 12.941,0 22.125,-0.3933 22.4768,-0.9625 z m -712.7937,-10.225 c -0.3192,-0.7977 -0.5562,-0.5608 -0.6042,0.6042 -0.043,1.0541 0.193,1.6448 0.5253,1.3125 0.3323,-0.3323 0.3678,-1.1948 0.079,-1.9167 z m 878,0 c -0.3192,-0.7977 -0.5562,-0.5608 -0.6042,0.6042 -0.043,1.0541 0.193,1.6448 0.5253,1.3125 0.3323,-0.3323 0.3678,-1.1948 0.079,-1.9167 z m -754.7893,-3.8125 c 0.4016,0 4.7523,-3.4018 9.6682,-7.5596 14.5706,-12.3235 28.7084,-20.886 42.1026,-25.4991 18.7028,-6.4416 53.2157,-6.5765 72.8354,-0.2848 13.2384,4.2453 32.2415,15.6671 44.6294,26.8242 6.2959,5.6705 12.0103,8.713 13.5231,7.2001 1.0606,-1.0605 -1.8367,-4.6463 -9.8295,-12.1654 -18.2739,-17.1907 -35.3956,-26.3129 -60.323,-32.1392 -9.8598,-2.3045 -36.6104,-2.5936 -46,-0.4971 -16.4581,3.6748 -34.6289,11.3522 -47.2048,19.9445 -6.5319,4.4628 -21.8027,18.3877 -23.3637,21.3044 -1.243,2.3225 -0.2776,4.2188 1.7514,3.4402 0.8144,-0.3125 1.8093,-0.5682 2.2109,-0.5682 z m 70.0117,-0.9055 c 1.048,-1.048 4.2444,-5.8855 7.103,-10.75 6.477,-11.0215 9.7037,-15.3445 11.4535,-15.3445 1.9037,0 5.4329,4.4417 10.8302,13.6306 6.9123,11.7679 9.5629,14.6032 13.2759,14.2014 l 3.0678,-0.332 -9.568,-16 c -7.8404,-13.1113 -10.2059,-16.3122 -13.1017,-17.7291 -5.5627,-2.7218 -9.9454,-1.0279 -14.2405,5.5038 C 6.645,816.50611 -4,835.23831 -4,836.45241 c 0,1.7723 4.8835,1.1692 6.9055,-0.8528 z m 461.4858,-13.6405 c 0.7455,-16.7124 1.4359,-19.4884 5.3705,-21.5941 3.7183,-1.99 56.7971,-1.9691 60.5209,0.024 3.7992,2.0333 4.5497,5.0234 5.4255,21.6163 l 0.7918,15 2.4552,0 c 3.4363,0 4.3393,-4.9042 3.7354,-20.2862 -0.5534,-14.0948 -1.8167,-17.0347 -9.5426,-22.2078 -5.8735,-3.9328 -10.2176,-4.506 -34.148,-4.506 -22.6305,0 -29.017,1.1191 -34.9694,6.1277 -5.7237,4.8162 -7.4663,11.0111 -8.4733,30.1223 l -0.5928,11.25 4.3666,0 4.3666,0 0.6936,-15.546 z m 15.6067,14.5471 c 1.0265,-0.5494 4.2236,-4.9369 7.1046,-9.75 7.1111,-11.8801 10.9961,-17.2511 12.478,-17.2511 1.824,0 5.2772,4.4573 12.2738,15.8427 6.4483,10.4931 8.5673,12.4977 12.6523,11.969 2.3075,-0.2987 2.0511,-0.8952 -6.151,-14.3117 -13.7676,-22.5204 -17.6274,-25.2283 -25.1862,-17.6695 -5.6791,5.6791 -19.9446,30.0611 -18.458,31.5477 0.9175,0.9175 3.1674,0.757 5.2865,-0.3771 z m -141.2688,-53.6053 c -0.3323,-0.3323 -1.1948,-0.3678 -1.9167,-0.079 -0.7977,0.3192 -0.5608,0.5562 0.6042,0.6042 1.0541,0.043 1.6448,-0.193 1.3125,-0.5253 z m -172.0186,-4.5169 c -0.7498,-5.5901 -2.7106,-7.5148 -2.7106,-2.6607 0,4.2875 0.8234,6.7818 2.2387,6.7818 0.6232,0 0.8081,-1.6146 0.4719,-4.1211 z M 186,781.50511 c 0,-0.55 -0.7016,-1 -1.559,-1 -0.8575,0 -1.2809,0.45 -0.941,1 0.3399,0.55 1.0415,1 1.559,1 0.5176,0 0.941,-0.45 0.941,-1 z m 22.4182,0.393 c 2.2737,-0.8725 1.9836,-2.6573 -1.572,-9.6715 l -3.1538,-6.2215 -1.9198,6.837 c -1.0559,3.7603 -1.6758,7.4728 -1.3776,8.25 0.5527,1.4402 5.1634,1.9034 8.0232,0.806 z m 22.378,-2.0137 c 4.0332,-2.3636 5.2191,-2.5756 12.0879,-2.1606 5.216,0.3151 8.8717,1.1409 11.6011,2.6207 4.7412,2.5705 11.5878,2.8278 15.3605,0.5772 1.4599,-0.8709 4.1996,-3.6103 6.0883,-6.0875 3.782,-4.9606 3.7977,-4.1991 -0.3617,-17.5791 -2.3623,-7.5991 0.5804,-6.0461 4.298,2.2682 l 3.1381,7.0182 4.2458,-2.1659 c 2.3352,-1.1912 5.7083,-3.7623 7.4958,-5.7136 l 3.25,-3.5477 0,3.6763 c 0,3.0926 0.3991,3.7766 2.513,4.3071 1.5044,0.3776 3.1623,0.092 4.1308,-0.7119 1.4057,-1.1667 2.056,-0.8358 4.9602,2.5239 l 3.3424,3.8666 0.9226,-2.4267 c 0.5075,-1.3347 1.6577,-3.0367 2.5561,-3.7824 1.4022,-1.1636 1.9622,-1.0469 3.9541,0.8244 1.8361,1.7249 2.5356,1.9122 3.35,0.8968 2.0355,-2.5376 7.2708,-15.6739 7.2708,-18.2438 0,-3.0901 -8.0639,-12.2665 -11.5478,-13.1409 -4.5722,-1.1475 -12.2748,5.6043 -17.6557,15.4761 -1.8084,3.3178 -3.7965,4.148 -3.7965,1.5855 0,-3.0326 4.1097,-9.5043 10.1062,-15.9146 l 6.099,-6.5198 -2.7671,-4.7629 c -8.7952,-15.1393 -19.0498,-28.4936 -23.7436,-30.9209 -2.9976,-1.5501 -3.0994,-1.5221 -5.6237,1.5487 -1.4633,1.7801 -3.5146,3.1234 -4.7618,3.1183 -1.205,0 -2.4691,0.441 -2.809,0.991 -1.2229,1.9787 -3.2814,0.9287 -5.8813,-3 -1.4559,-2.2 -3.2244,-4 -3.9299,-4 -2.975,0 -18.6888,20.2219 -18.6888,24.0503 0,1.2117 1.1745,1.8819 4.1252,2.3537 2.2689,0.3628 5.0814,1.1803 6.25,1.8166 2.1114,1.1495 2.109,1.1613 -0.3752,1.8684 -1.375,0.3914 -4.8332,0.7565 -7.6849,0.8113 -2.8517,0.055 -6.3233,0.5325 -7.7146,1.0615 -1.6293,0.6195 -2.7437,0.6156 -3.1309,-0.011 -1.0912,-1.7657 19.066,-33.0968 22.4627,-34.9147 3.2426,-1.7353 6.8214,-1.169 9.7472,1.5426 3.2066,2.9718 6.5526,2.7881 11.1516,-0.6121 2.6616,-1.9678 3.0487,-1.9983 7.2018,-0.5674 2.414,0.8317 4.5493,1.3518 4.7453,1.1558 0.5265,-0.5265 -4.6118,-10.4199 -7.9127,-15.2353 -1.576,-2.2991 -2.8655,-4.9563 -2.8655,-5.905 0,-1.5883 0.1629,-1.5773 2.0586,0.1383 2.5702,2.326 10.279,14.6144 12.493,19.9148 1.2661,3.0312 1.3946,4.3886 0.5444,5.75 -0.9203,1.4736 -0.7855,1.7821 0.7782,1.7821 1.2946,0 2.7225,1.6994 4.5272,5.3881 4.8095,9.8301 16.6819,26.6394 20.5322,29.07 2.005,1.2657 4.8398,3.8671 6.2995,5.7809 1.4597,1.9137 4.194,4.2103 6.0762,5.1035 1.8823,0.8932 5.0386,3.5964 7.0141,6.0072 2.1908,2.6737 4.712,4.6074 6.4639,4.9578 3.3928,0.6785 8.0031,8.1902 6.8581,11.1741 -0.6603,1.7208 -0.7643,1.7208 -2.6662,-5e-4 -1.0886,-0.9851 -1.9792,-2.5662 -1.9792,-3.5136 0,-0.9475 -0.6697,-2.2784 -1.4882,-2.9577 -1.2175,-1.0105 -1.5928,-0.8964 -2.0637,0.6276 -0.3165,1.0244 -1.9431,5.0126 -3.6145,8.8626 -4.8551,11.1834 -5.4543,13.4948 -3.7739,14.5581 1.618,1.0237 12.9211,1.2702 15.3585,0.3349 1.4203,-0.545 1.5786,-7.2078 1.55,-65.25 -0.028,-56.8491 -0.2076,-64.4107 -1.4897,-62.716 -0.8018,1.0598 -1.575,1.7348 -1.7182,1.5 -0.1432,-0.2349 -0.7589,-1.327 -1.3683,-2.427 -1.0396,-1.8766 -2.2941,-2.0168 -20.3329,-2.2719 l -19.2249,-0.2719 0.3833,6.7719 c 0.2109,3.7246 0.7463,7.5594 1.1899,8.5219 0.5933,1.2873 0.3682,1.75 -0.8514,1.75 -2.6432,0 -4.8681,-6.5895 -4.1226,-12.2097 l 0.6355,-4.7903 -17.2845,0.054 -17.2844,0.054 -3,4.6378 c -4.0232,6.2197 -5.9621,6.8149 -3.9898,1.2248 0.8119,-2.3013 1.2277,-4.5862 0.924,-5.0777 -0.3037,-0.4914 -10.1006,-0.8935 -21.7707,-0.8935 -16.5694,0 -21.6565,0.3068 -23.2174,1.4001 -1.7134,1.2001 -2.2724,1.2001 -3.9136,0 -1.4762,-1.0794 -6.1082,-1.4001 -20.2236,-1.4001 l -18.3089,7e-4 0,6.099 0,6.0989 17.25,-0.3688 c 12.8387,-0.2744 17.8138,-0.7376 19.4545,-1.8111 2.4594,-1.609 3.8555,-0.9197 2.9447,1.4539 -1.0723,2.7941 -5.7787,3.619 -20.6492,3.619 -19.5334,0 -21.5619,-0.869 -22.837,-9.7833 l -0.6877,-4.8076 -6.4877,0 -6.4876,0 -0.3029,3.1104 c -0.4243,4.3555 3.2091,8.3044 11.79,12.8135 7.1206,3.7418 13.7951,10.8214 15.5033,16.4444 1.1879,3.9102 -1.5195,2.0935 -6.3706,-4.2747 -2.5379,-3.3317 -5.9026,-6.4416 -8,-7.3943 -1.9909,-0.9043 -5.5009,-2.894 -7.8,-4.4217 -2.2991,-1.5277 -4.4366,-2.7776 -4.75,-2.7776 -0.7851,0 -0.7011,82.5719 0.089,87.3535 0.5073,3.0704 1.2163,4.0555 3.489,4.8478 1.5688,0.5469 2.8524,1.3522 2.8524,1.7895 0,0.9972 -2.5597,2.0092 -5.0818,2.0092 -2.3321,0 -2.3351,0.058 -0.233,4.4661 1.9282,4.0434 2.8049,4.3551 4.3148,1.5339 1.0072,-1.882 4,-2.8423 4,-1.2834 0,0.3941 -0.7287,2.6246 -1.6193,4.9566 -2.1455,5.6178 -1.2488,9.3268 2.2549,9.3268 2.3181,0 2.5305,-0.2958 1.9742,-2.75 -1.6739,-7.385 -1.8285,-9.25 -0.7663,-9.25 0.6078,0 1.7867,1.318 2.6197,2.9289 1.5021,2.9048 1.5414,2.9159 4.7757,1.3461 4.2383,-2.0571 4.0442,-1.8077 3.2801,-4.2152 -0.365,-1.15 -3.1644,-3.6906 -6.2209,-5.6458 -4.0297,-2.5778 -5.2559,-3.8562 -4.4611,-4.651 0.7948,-0.7949 2.8864,-0.1875 7.6092,2.2097 5.0231,2.5496 6.8262,3.0461 7.8817,2.1701 1.0491,-0.8707 1.724,-0.7281 2.8918,0.6107 2.7629,3.1677 4.0393,6.3875 2.96,7.4667 -1.2789,1.279 -3.1797,0.1422 -3.1797,-1.9017 0,-1.2763 -0.2755,-1.3348 -1.5,-0.3185 -0.825,0.6847 -1.5,2.0898 -1.5,3.1224 0,2.7108 4.6618,2.4638 7.0301,-0.3724 7.1553,-8.5688 6.8929,-8.3586 8.2221,-6.5866 0.6863,0.9148 1.799,2.4898 2.4727,3.5 0.6737,1.0101 0.076,-1.4656 -1.3284,-5.5017 -3.9074,-11.2299 -1.37,-11.1909 4.1035,0.063 1.65,3.3925 3.5187,6.3278 4.1527,6.5227 0.6356,0.1954 1.9054,-1.9117 2.8304,-4.6965 1.9843,-5.9742 4.0373,-6.8352 3.1019,-1.3009 -0.3486,2.0625 -0.9019,6.5884 -1.2296,10.0576 -0.5338,5.6517 -0.3571,6.5617 1.6987,8.75 2.8605,3.0449 3.2558,3.0368 8.7421,-0.1783 z M 353,774.92181 c 0,-1.766 2.1528,-1.4584 2.7708,0.3958 0.2177,0.6531 -0.3166,1.1875 -1.1875,1.1875 -0.8708,0 -1.5833,-0.7125 -1.5833,-1.5833 z m 0,-7 c 0,-1.766 2.1528,-1.4584 2.7708,0.3958 0.2177,0.6531 -0.3166,1.1875 -1.1875,1.1875 -0.8708,0 -1.5833,-0.7125 -1.5833,-1.5833 z m -132,-12.7601 c 0,-0.1889 0.9041,-2.9714 2.0092,-6.1834 2.3587,-6.8555 2.1303,-7.9764 -2.5487,-12.5115 -4.7195,-4.5743 -9.9768,-4.7573 -14.4186,-0.5019 -3.5801,3.43 -3.7591,5.2103 -0.995,9.8951 3.2079,5.437 0.5142,5.3843 -3.4858,-0.068 -1.9314,-2.6326 -3.5227,-5.2608 -3.5363,-5.8404 -0.028,-1.174 5.1363,-6.2498 8.9477,-8.7951 5.4718,-3.654 12.6059,-1.1934 20.2085,6.9701 l 2.6809,2.8788 -3.3686,7.25 c -1.8528,3.9875 -3.8467,7.25 -4.431,7.25 -0.5843,0 -1.0623,-0.1546 -1.0623,-0.3434 z m -55,-2.9294 c 0,-3.1502 8.2122,-14.8317 15.5892,-22.175 4.4491,-4.4287 10.8087,-12.1022 14.1326,-17.0522 3.3239,-4.95 7.3858,-10.6733 9.0264,-12.7183 1.6406,-2.0451 3.548,-5.0826 4.2387,-6.75 1.7456,-4.2144 4.0131,-3.9514 4.0131,0.4654 0,2.5538 -0.9039,4.5095 -3.3509,7.25 -2.039,2.2836 -3.5864,5.2575 -3.9523,7.5959 -0.721,4.6084 -5.0679,10.657 -7.6588,10.657 -2.1564,0 -7.038,5.3913 -7.038,7.7729 0,1.1562 0.9968,0.6533 3.485,-1.7584 3.9691,-3.847 5.3632,-3.4764 3.5341,0.9395 -0.6876,1.66 -1.0455,4.413 -0.7952,6.1179 0.4261,2.9034 0.2908,3.0601 -2.1345,2.4723 -1.4242,-0.3452 -4.7287,-0.8913 -7.3434,-1.2135 -4.6095,-0.5681 -4.8829,-0.4514 -9,3.8423 -2.3353,2.4356 -5.7362,6.993 -7.5575,10.1277 -3.1618,5.4416 -5.1885,7.1707 -5.1885,4.4265 z m 107.1639,-3.0297 c -0.5845,-0.7043 -2.2022,-3.7368 -3.595,-6.739 l -2.5323,-5.4585 2.9117,-0.6094 c 1.6014,-0.3351 5.0453,-2.0226 7.6531,-3.75 5.5652,-3.6862 10.3697,-4.0653 15.0848,-1.1904 3.2586,1.987 5.7,5.3911 5.1182,7.1365 -0.1789,0.5368 -2.3025,-0.4782 -4.7192,-2.2554 -6.2162,-4.5715 -10.2474,-4.4132 -14.8251,0.582 -3.1474,3.4343 -3.4454,4.2508 -2.9984,8.2158 0.5208,4.6205 -0.3071,6.226 -2.0978,4.0684 z m -45.1545,-12.4475 c 0.019,-1.5415 6.0695,-11.25 7.0108,-11.25 1.5414,0 1.1731,1.6849 -1.5371,7.0332 -1.3842,2.7318 -3.1842,4.9668 -4,4.9668 -0.8157,0 -1.4789,-0.3375 -1.4737,-0.75 z m 35.0942,-6.7848 c -3.1303,-3.5652 -3.5989,-4.6366 -2.5058,-5.7296 1.1094,-1.1095 3.3501,0.4441 5.382,3.7317 3.8545,6.2367 1.9854,7.535 -2.8762,1.9979 z M 353,719.92181 c 0,-1.766 2.1528,-1.4584 2.7708,0.3958 0.2177,0.6531 -0.3166,1.1875 -1.1875,1.1875 -0.8708,0 -1.5833,-0.7125 -1.5833,-1.5833 z m -32.25,-4.501 c -2.6272,-2.2518 -4.75,-4.936 -4.75,-6.0062 0,-2.9383 3.775,-15.9334 5.0882,-17.5157 1.17,-1.4098 4.9118,-1.9602 4.9118,-0.7225 0,0.3692 -0.7131,1.4592 -1.5848,2.4223 -0.8716,0.9632 -1.8299,3.5794 -2.1296,5.814 -0.2997,2.2345 -1.1616,4.5745 -1.9153,5.2 -2.1287,1.7667 -1.6806,3.2415 2.6297,8.6549 6.0971,7.6576 5.1875,8.5281 -2.25,2.1532 z m -89.725,-6.5217 c -1.8687,-3.0834 -4.8888,-6.7959 -6.7113,-8.25 -4.0128,-3.2018 -4.416,-5.4588 -0.8137,-4.5546 3.1937,0.8015 3.1807,-0.3125 -0.078,-6.7442 -1.7021,-3.3588 -2.2419,-5.4249 -1.5882,-6.0786 1.4351,-1.435 5.8394,5.6955 7.139,11.558 0.5883,2.6535 2.2069,7.0691 3.5971,9.8125 3.9114,7.7187 4.589,9.8629 3.1171,9.8629 -0.6952,0 -2.7929,-2.5227 -4.6616,-5.606 z m -15.275,-5.0833 c -2.1429,-0.56 -2.306,-3.1601 -0.2478,-3.9499 2.2452,-0.8616 6.4978,0.4809 6.4978,2.0513 0,0.7556 -0.7118,1.6471 -1.5818,1.9809 -1.6743,0.6425 -1.9105,0.6383 -4.6682,-0.082 z M 182,697.72761 c 0,-2.3375 6.4663,-9.1285 8.75,-9.1892 2.0918,-0.056 1.4379,1.1996 -2.9582,5.6788 -4.0375,4.1139 -5.7918,5.1772 -5.7918,3.5104 z m 125.0018,-0.4725 c 0,-1.5094 8.0402,-6.75 10.3531,-6.75 3.807,0 0.3643,3.9659 -5.6094,6.4619 -4.4516,1.86 -4.746,1.8779 -4.7437,0.2881 z m 41.4274,-5.25 c -5.727,-4.0717 -8.6658,-4.3307 -14.8805,-1.3114 -5.3348,2.5918 -7.1874,1.6214 -3.297,-1.7271 6.4405,-5.5435 14.8469,-5.0776 21.805,1.2087 6.8392,6.1788 4.2948,7.4623 -3.6275,1.8298 z m -27.3971,-4.7814 c 0.056,-2.1361 5.4187,-12.1232 6.7179,-12.5116 2.0181,-0.6033 1.4447,2.6647 -1.3773,7.8495 -2.5382,4.6636 -5.4066,7.1675 -5.3406,4.6621 z M 214,683.08611 c 0,-0.7805 2.1745,-3.9674 4.8323,-7.0819 2.6578,-3.1146 7.2306,-9.9011 10.1619,-15.081 2.9312,-5.18 5.7655,-9.4181 6.2985,-9.4181 3.9143,0 -6.1207,19.5869 -14.4435,28.1916 -4.7314,4.8917 -6.8492,5.9397 -6.8492,3.3894 z m 46,0.8869 c 0,-0.2927 0.6214,-2.0194 1.3809,-3.8371 1.6075,-3.8472 1.3443,-4.501 -5.1791,-12.8653 -3.4063,-4.3674 -4.2118,-6.0486 -3.379,-7.052 0.6014,-0.7247 0.8349,-2.3067 0.5187,-3.5155 -0.321,-1.2275 -0.1138,-2.198 0.4693,-2.198 1.7234,0 5.1892,5.0992 5.1892,7.6349 0,1.3008 0.7875,3.1921 1.75,4.2028 0.9625,1.0108 2.2034,2.626 2.7577,3.5894 0.9074,1.5774 1.4546,1.3602 5.5,-2.183 4.1703,-3.6526 8.0826,-6.2441 9.4266,-6.2441 1.5496,0 0.267,2.9657 -1.8954,4.3825 -1.3536,0.8869 -4.3429,4.4262 -6.643,7.865 -4.6959,7.0209 -7.8437,10.7525 -9.0702,10.7525 -0.4541,0 -0.8257,-0.2395 -0.8257,-0.5321 z m -21.4931,-17.817 c -2.0705,-3.16 -1.2753,-4.6509 2.4807,-4.6509 1.5782,0 3.5445,-0.675 4.3695,-1.5 2.5679,-2.5679 3.8731,-1.8322 3.1048,1.75 -0.9417,4.3904 -1.2309,4.75 -3.8209,4.75 -1.2326,0 -2.7391,0.4981 -3.3479,1.1069 -0.8092,0.8092 -1.5585,0.4176 -2.7862,-1.456 z M 328,667.00511 c 0,-0.825 0.675,-1.5 1.5,-1.5 0.825,0 1.5,0.675 1.5,1.5 0,0.825 -0.675,1.5 -1.5,1.5 -0.825,0 -1.5,-0.675 -1.5,-1.5 z m 20,-2 c 0,-1.6871 3.4663,-5.5 5,-5.5 1.6885,0 1.1106,2.8894 -1,5 -2.3743,2.3743 -4,2.5775 -4,0.5 z m -103.731,116.8441 c -0.677,-0.274 -2.027,-0.2906 -3,-0.037 -0.9729,0.2536 -0.419,0.4777 1.231,0.4981 1.65,0.02 2.4461,-0.1871 1.769,-0.461 z m 44.2661,-0.4009 c 0.99,-1.6018 -0.3933,-5.9432 -1.8936,-5.9432 -1.5361,0 -3.9372,4.7126 -3.0952,6.0749 0.7792,1.2607 4.1838,1.1708 4.9888,-0.1317 z m 24.9649,-1.8504 c 4.4748,-2.4828 5.0334,-3.1724 5.3182,-6.5653 0.4753,-5.6621 -1.3242,-6.4907 -2.9482,-1.3575 -1.7444,5.5133 -3.7906,5.5507 -6.37,0.1162 -1.1,-2.3175 -2.2761,-4.23 -2.6134,-4.25 -1.1268,-0.066 -6.0616,12.0653 -5.5015,13.525 0.8767,2.2847 6.6014,1.5908 12.1149,-1.4684 z m 16.5,1.9072 c 0,-0.55 -0.7016,-1 -1.559,-1 -0.8575,0 -1.2809,0.45 -0.941,1 0.3399,0.55 1.0415,1 1.559,1 0.5176,0 0.941,-0.45 0.941,-1 z m -51.2777,-1.25 c 0.532,-0.6875 1.2724,-2.1011 1.6454,-3.1414 0.5846,-1.6306 0.4605,-1.7109 -0.8994,-0.5823 -2.083,1.7287 -3.7962,4.9737 -2.6259,4.9737 0.502,0 1.348,-0.5625 1.8799,-1.25 z m 19.0923,-4.4728 c 0.363,-2.5407 -2.6537,-9.4947 -3.8091,-8.7806 -1.2556,0.776 -1.821,6.81 -0.874,9.3262 1.0928,2.9032 4.2429,2.5362 4.6831,-0.5456 z m -103.5456,0.067 c -0.677,-0.274 -2.027,-0.2906 -3,-0.037 -0.9729,0.2536 -0.419,0.4777 1.231,0.4981 1.65,0.02 2.4461,-0.1871 1.769,-0.461 z M 336,774.56411 c 0,-2.318 -1.7951,-3.6639 -3.1199,-2.3391 -1.2553,1.2553 -0.035,4.2801 1.7269,4.2801 0.7661,0 1.393,-0.8734 1.393,-1.941 z m -34.1875,-6.9965 c 0.25,-0.75 -0.125,-1.125 -0.875,-0.875 -0.7219,0.2406 -1.5094,1.0281 -1.75,1.75 -0.25,0.75 0.125,1.125 0.875,0.875 0.7219,-0.2406 1.5094,-1.0281 1.75,-1.75 z m 38.1636,-1.6105 c 1.3525,-1.3529 1.3552,-1.6376 0.024,-2.5315 -1.8015,-1.2097 -9.7476,-0.5728 -11.2197,0.8992 -0.5752,0.5752 -0.7522,1.8111 -0.3933,2.7463 0.5388,1.4041 1.4728,1.588 5.3589,1.0554 2.5886,-0.3548 5.3922,-1.3311 6.2303,-2.1694 z m 2.5714,-7.5288 c 0.8974,-1.4521 -2.1717,-9.2731 -4.4468,-11.3321 -1.7335,-1.5688 -1.9373,-1.3985 -3.9641,3.3129 -2.2256,5.1737 -2.5969,7.3024 -1.4699,8.4293 1.091,1.0911 9.16,0.7561 9.8808,-0.4101 z M -0.5,744.86251 c 9.1774,-4.9871 5.5432,-4.6819 64.9729,-5.457 36.1352,-0.4714 57.027,-1.1161 58.8435,-1.8161 2.2811,-0.879 2.7562,-1.6056 2.5,-3.8229 -0.436,-3.773 -3.0642,-4.1126 -33.3164,-4.3057 -13.75,-0.088 -38.95,-0.4592 -56,-0.8256 l -31,-0.666 -4.992,-2.7321 c -4.8744,-2.6676 -5.3811,-2.7314 -21.5,-2.7081 -17.9807,0.026 -23.0652,0.759 -26.3547,3.7995 -1.9227,1.7773 -4.1342,2.0647 -20.6533,2.6846 -19.3577,0.7264 -23,1.5804 -23,5.3926 0,3.9641 2.5345,4.5741 21.5979,5.1982 15.7562,0.5158 18.6642,0.8624 20.9792,2.5 6.0894,4.3079 6.4662,4.3715 25.9229,4.3803 15.6816,0.01 19.524,-0.2761 22,-1.6217 z m -34.7455,-6.2865 c -5.3437,-0.7453 -7.1064,-2.005 -6.5861,-4.707 0.5033,-2.6135 3.9579,-3.11 22.5816,-3.2456 l 16.25,-0.1183 0,4.5 0,4.5 -13.75,-0.1336 c -7.5625,-0.074 -15.8855,-0.4315 -18.4955,-0.7955 z m 604.8649,6.6644 c 8.2966,-4.8356 8.7494,-4.954 22.1174,-5.7854 13.9911,-0.8702 16.2632,-1.6318 16.2632,-5.451 0,-3.3156 -3.6043,-4.2841 -18.8098,-5.0544 -12.4298,-0.6296 -13.5168,-0.8485 -16.4407,-3.3094 l -3.1309,-2.6351 -20.7235,0 c -19.5587,0 -20.8851,0.1194 -23.5988,2.1243 -1.5814,1.1684 -4.4325,2.4701 -6.3358,2.8927 -1.9033,0.4226 -31.1355,1.0417 -64.9605,1.3757 l -61.5,0.6073 -0.3075,4.25 c -0.1691,2.3375 -0.1691,4.2936 0,4.3468 0.1691,0.053 28.6575,0.4083 63.3075,0.7888 67.1585,0.7377 62.6589,0.3957 72,5.4718 2.468,1.3412 6.2805,1.6288 21.5,1.6217 12.8577,-0.01 19.1464,-0.3853 20.6194,-1.2438 z m -39.4269,-9.9853 0.3075,-4.25 18.5,0 18.5,0 0.3075,4.25 0.3075,4.25 -19.115,0 -19.115,0 z M 44.0879,708.92491 c 2.4031,-2.1755 1.2742,-2.1004 48.5259,-3.2294 32.5069,-0.7766 33.7835,-1.0099 33.1868,-6.0653 -0.2044,-1.7308 -1.1011,-2.7669 -2.8006,-3.2359 -1.375,-0.3794 -15.55,-0.7667 -31.5,-0.8607 -36.7324,-0.2163 -43.331,-0.7768 -47.6964,-4.0508 -3.2215,-2.4161 -3.8006,-2.4852 -23.3036,-2.7815 l -20,-0.3038 -4.9623,3.2886 -4.9622,3.2886 -39.261,0.5152 c -38.7586,0.5086 -39.2892,0.5433 -41.4555,2.7107 -1.8306,1.8315 -1.9815,2.452 -0.9102,3.7428 2.359,2.8425 8.325,3.3815 45.0512,4.0706 30.4524,0.5713 37.0799,0.9522 40,2.2987 5.6112,2.5873 10.3943,3.0338 29.7337,2.7755 16.3749,-0.2187 18.4498,-0.4393 20.3542,-2.1633 z M 0.75,703.95361 C 0.3375,703.52361 0,701.44681 0,699.33841 l 0,-3.8333 16.75,0.1 c 9.2125,0.055 17.875,0.4108 19.25,0.791 3.375,0.9332 3.8679,4.5744 0.8388,6.1956 -2.6071,1.3952 -34.8882,2.6137 -36.0888,1.3622 z m 461.25,5.0101 c 3.1821,-1.7342 6.7247,-1.9686 39,-2.5813 19.525,-0.3707 49.45,-0.7531 66.5,-0.8497 17.05,-0.097 33.025,-0.48 35.5,-0.8517 4.1549,-0.6241 4.5,-0.9005 4.5,-3.604 0,-2.3953 -0.5458,-3.0847 -3,-3.7892 -1.65,-0.4736 -32.7,-1.257 -69,-1.7409 -36.3,-0.4838 -67.125,-1.2181 -68.5,-1.6317 -1.375,-0.4136 -3.7738,-1.6875 -5.3306,-2.831 -2.6128,-1.9191 -4.3829,-2.0996 -23,-2.3449 -16.4313,-0.2165 -20.6327,0.01 -22.6694,1.2239 -6.2638,3.7325 -10.778,5.4997 -14.1008,5.5199 -1.9804,0.012 -5.0179,0.516 -6.75,1.1198 -2.5447,0.8871 -3.1492,1.6482 -3.1492,3.9648 0,3.6329 1.678,4.4886 10.5,5.3539 3.85,0.3776 8.125,1.4343 9.5,2.3482 3.7882,2.5178 9.8268,3.1101 29,2.844 15.0305,-0.2085 17.9939,-0.5119 21,-2.1501 z m -39,-5.3588 c -4.2331,-0.5642 -4.4875,-0.7728 -4.2889,-3.5168 0.1161,-1.6043 0.7911,-3.3195 1.5,-3.8115 2.0413,-1.4167 33.4415,-0.3047 35.3157,1.2508 2.5113,2.0841 1.4201,5.3698 -2.0268,6.103 -3.7471,0.797 -24.4591,0.7797 -30.5,-0.025 z m -460.5867,-27.8975 3.9134,-2.7023 77.0866,-0.6251 c 52.3335,-0.4244 77.9697,-0.9784 79.8367,-1.7253 4.0039,-1.6017 3.5948,-5.7802 -0.75,-7.6615 -1.1,-0.4763 -36.65,-1.1341 -79,-1.4619 -76.8094,-0.5945 -77.0116,-0.6014 -81.6951,-2.8111 -4.3839,-2.0682 -6.0926,-2.2151 -25.7721,-2.2151 l -21.0769,0 -2.9779,4.6958 c -1.6379,2.5827 -2.978,5.3343 -2.978,6.1147 0,0.7803 1.1896,3.6046 2.6437,6.2761 l 2.6436,4.8574 13.1064,0.3711 c 7.2085,0.2042 17.1563,0.1953 22.1063,-0.02 7.7861,-0.3381 9.5278,-0.7553 12.9133,-3.0931 z M -81,668.00511 l 0,-4.5 17.75,0.015 c 9.7625,0.01 18.3673,0.4064 19.1219,0.8844 1.0302,0.6525 1.1351,1.5828 0.4214,3.7346 -0.8802,2.6542 -1.4243,2.9124 -7.3718,3.4988 -3.5318,0.3482 -11.709,0.6857 -18.1715,0.75 l -11.75,0.1172 z m 652.2493,7.8542 3.5017,-3.0745 15.0844,-0.4841 c 16.0776,-0.5161 18.1646,-1.1414 18.1646,-5.4428 0,-3.6131 -3.6449,-4.5685 -20.19,-5.2919 -12.6316,-0.5523 -14.993,-0.9168 -16.8526,-2.6016 -1.9815,-1.7952 -3.9581,-1.9849 -23.6023,-2.2648 -20.9118,-0.2979 -21.5309,-0.2486 -25.1473,2 l -3.7078,2.3055 -61.0448,0.5 c -56.2542,0.4608 -61.257,0.6391 -63.75,2.2731 -3.4234,2.2437 -3.6736,6.1941 -0.4552,7.1895 1.2375,0.3828 27.675,0.8972 58.75,1.1432 31.075,0.246 58.8768,0.6945 61.7818,0.9967 3.5428,0.3685 5.9185,1.2328 7.2158,2.6253 2.8896,3.1017 7.644,3.6814 28.1262,3.4298 l 18.6239,-0.2289 z M 527,668.02671 l 0,-4.5216 19.5575,0 19.5575,0 -0.3075,4.25 -0.3075,4.25 -19.25,0.2716 -19.25,0.2716 z m -55.2388,357.41599 c -6.3105,-3.3316 -7.1175,-5.7675 -6.8539,-20.6876 0.051,-2.8875 0.4302,-5.24419 0.8427,-5.23709 1.504,0.026 16.25,24.36179 16.25,26.81799 0,1.8288 -6.0892,1.2976 -10.2388,-0.8933 z M -180.1844,833.25511 c -1.3682,-7.3721 2.79,-40.5153 6.8393,-54.5131 5.0284,-17.3826 21.6731,-55.4063 27.4166,-62.6314 2.1151,-2.6607 2.361,-2.7414 3.0444,-1 1.0858,2.7666 0.9963,24.1968 -0.1212,29.0369 -0.526,2.2782 -5.6406,15.1032 -11.3657,28.5 -5.725,13.3967 -12.4962,30.2076 -15.0469,37.3576 -4.6658,13.0786 -9.5749,25.5 -10.078,25.5 -0.149,0 -0.4588,-1.0125 -0.6885,-2.25 z m 855.1158,-3.8782 c -1.9889,-3.7162 -7.9425,-22.022 -9.4409,-29.0283 -2.7866,-13.0292 -3.1546,-37.8435 -0.5613,-37.8435 0.9941,0 4.3602,8.2708 6.5117,16 4.2655,15.3237 8.1715,50.8855 5.7532,52.38 -0.6016,0.3718 -1.6198,-0.3069 -2.2627,-1.5082 z m -828.1286,-38.4023 c -1.6453,-1.6454 7.2969,-21.3818 10.0967,-22.2846 2.4076,-0.7763 0.624,7.3542 -2.8826,13.14 -4.3415,7.1634 -6.482,9.8767 -7.2141,9.1446 z m -23.7416,-148.5035 c -6.4737,-3.5682 -9.0612,-5.7674 -9.0612,-7.7015 0,-3.7457 20.2106,-29.2878 25.227,-31.8819 2.9292,-1.5148 3.2121,-1.5026 4.4505,0.1911 2.1428,2.9304 1.5877,11.6761 -1.2134,19.1179 -3.3444,8.8854 -11.253,23.3132 -12.7665,23.2903 -0.6587,-0.01 -3.6451,-1.3671 -6.6364,-3.0159 z m 837.5369,-9.0943 c -8.2867,-16.9793 -10.3045,-27.3807 -6.0042,-30.9496 2.5048,-2.0789 5.8118,0.3846 14.3409,10.6831 11.7931,14.2396 15.4292,19.8179 14.7207,22.5833 -0.7624,2.9759 -8.5284,7.8506 -13.5882,8.5293 l -3.9193,0.5257 z m -780.3027,-22.7804 c -4.7692,-6.0529 -4.8107,-7.0161 -0.7087,-16.4607 4.0172,-9.2494 3.8372,-11.4558 -0.8391,-10.2821 -1.7558,0.4407 -3.0956,2.217 -4.9984,6.6268 -1.8681,4.3296 -3.1322,6.0247 -4.4928,6.0247 -2.5355,0 -12.0605,-2.8587 -15.5962,-4.6807 -2.7595,-1.4221 -2.7888,-1.5197 -1.0397,-3.4524 1.5454,-1.7077 1.5934,-2.1196 0.3397,-2.9126 -0.8031,-0.508 -3.3727,-0.9306 -5.7102,-0.939 -2.3375,-0.01 -4.25,-0.2499 -4.25,-0.5367 0,-0.2868 1.1861,-2.3138 2.6358,-4.5044 1.4496,-2.1906 3.4175,-6.3527 4.3731,-9.2491 2.5663,-7.7791 10.079,-17.9252 16.3595,-22.094 2.9334,-1.9471 7.306,-5.1881 9.7168,-7.2023 l 4.3834,-3.6622 7.3532,0.6663 c 11.7964,1.069 24.6985,5.7197 31.4211,11.3262 5.774,4.8154 8.1079,7.7883 13.1426,16.7409 2.9083,5.1715 5.5848,12.6941 5.6037,15.75 0.01,0.9625 -0.7003,1.75 -1.5693,1.75 -1.3805,0 -1.492,1.2443 -0.882,9.8479 l 0.6982,9.8479 -4.7576,0.6521 c -2.6167,0.3587 -6.4948,0.6521 -8.6181,0.6521 l -3.8604,0 0,-7.9349 c 0,-9.8387 -1.1486,-13.3256 -4.2442,-12.8844 -2.0647,0.2942 -2.3216,1.0936 -3.2669,10.1634 -1.1399,10.9381 -2.2436,12.6559 -8.1316,12.6559 -1.7932,0 -6.8426,1.575 -11.2209,3.5 -4.3782,1.925 -8.3375,3.4751 -8.7984,3.4447 -0.4609,-0.031 -1.8301,-1.3145 -3.0426,-2.8534 z m -4.8521,-31.3138 c 1.9251,-2.7484 2.0294,-9.7488 0.1829,-12.274 -1.3159,-1.7997 -1.4895,-1.755 -4.1182,1.0588 -6.0576,6.4841 -9.6454,11.4064 -9.0344,12.395 0.3544,0.5735 3.0674,1.0427 6.0287,1.0427 4.4304,0 5.6601,-0.3938 6.941,-2.2225 z m 29.3466,-2.5275 c -2.8507,-3.9858 -12.4528,-11.25 -14.8707,-11.25 -0.9712,0 -1.9192,5.4951 -1.9192,11.125 l 0,4.875 10.0936,0 10.0936,0 z M -70,580.58181 c 0,-2.3354 -11.8531,-13.0767 -14.4302,-13.0767 -1.0816,0 -0.5648,3.1092 1.0472,6.2997 2.8652,5.6708 5.3841,7.7003 9.5573,7.7003 2.1041,0 3.8257,-0.4155 3.8257,-0.9233 z m 667.0376,23.9819 -9.4625,-0.5586 -0.7948,-3.5 c -0.4371,-1.925 -0.679,-6.425 -0.5375,-10 l 0.2572,-6.5 -3,0 c -2.5272,0 -3.1942,0.5516 -4.2324,3.5 -1.1302,3.2098 -0.9695,8.9555 0.4126,14.75 0.5266,2.2079 0.3663,2.25 -8.5718,2.25 l -9.1084,0 0,-10.5 c 0,-8.6667 -0.2619,-10.5 -1.5,-10.5 -0.825,0 -1.5,-0.17 -1.5,-0.3779 0,-0.2078 0.675,-1.9934 1.5,-3.9679 0.825,-1.9745 1.5,-5.1097 1.5,-6.9671 0,-3.9147 0.8873,-4.8456 11.726,-12.301 9.9138,-6.8192 14.3425,-8.9136 21.7135,-10.2683 5.3093,-0.9759 6.2969,-0.8809 9.3072,0.8952 2.0262,1.1955 5.1741,1.987 7.9027,1.987 3.0209,0 5.3841,0.6678 7.0777,2 1.3985,1.1 3.1682,2 3.9327,2 0.7646,0 4.4409,1.5363 8.1696,3.4141 6.8451,3.4471 11.1103,8.02 12.6719,13.5859 0.3858,1.375 1.9893,4.1405 3.5633,6.1456 l 2.8619,3.6456 -3.3579,0.63 c -3.0282,0.568 -3.3437,0.9466 -3.2133,3.8544 0.1332,2.9685 -0.2918,3.4335 -5.3553,5.8591 -9.8938,4.7394 -9.3832,4.8481 -14.463,-3.077 -3.6301,-5.6633 -5.0191,-7.0577 -7.0304,-7.0577 -3.3769,0 -3.2278,1.651 0.9934,11 1.925,4.2634 3.5,8.2051 3.5,8.7592 0,2.2398 -4.7995,2.4896 -24.9624,1.2994 z m -20.2467,-24.6247 c 3.6079,-2.5271 7.9666,-12.4493 5.4591,-12.4273 -2.0542,0.018 -14.25,10.1744 -14.25,11.867 0,2.5611 5.4394,2.9078 8.7909,0.5603 z m 32.9232,-6.0308 c -0.316,-4.1783 -0.7873,-7.8097 -1.0474,-8.0697 -0.9543,-0.9544 -8.2855,3.6136 -12.4167,7.7366 -6.8333,6.8198 -6.0548,7.93 5.561,7.93 l 8.4777,0 z m 25.0665,6.7472 c 2.1422,-0.6108 1.8852,-1.0654 -4.2329,-7.4893 -3.5825,-3.7615 -7.0838,-6.6511 -7.7806,-6.4214 -0.7461,0.2459 -1.3907,2.5233 -1.5676,5.5385 -0.2399,4.0881 0.113,5.5344 1.75,7.1714 2.0861,2.0861 6.9834,2.5832 11.8311,1.2008 z M 249,594.00511 c 0,-9.8333 -0.127,-10.5 -2,-10.5 -1.9728,0 -2,-0.6667 -2,-49 0,-47.1162 0.072,-49 1.8613,-49 1.6371,0 1.9222,-1.068 2.3668,-8.8669 0.4164,-7.3022 0.882,-9.2432 2.6388,-11 1.1732,-1.1732 2.1742,-3.3706 2.2245,-4.8831 0.05,-1.5125 0.4637,-29.525 0.9188,-62.25 0.4769,-34.3025 1.2668,-61.4057 1.865,-64 1.3684,-5.9343 1.4966,-75 0.1392,-75 -0.5421,0 -1.4903,-2.0042 -2.1071,-4.4538 -1.2422,-4.9331 -11.1289,-17.2052 -16.4584,-20.4291 -3.9942,-2.4163 -5.4489,-7.4184 -5.4489,-18.7363 0,-8.5772 0.1239,-9.0614 3.552,-13.8831 1.9536,-2.7478 5.7387,-6.9089 8.4113,-9.2469 l 4.8594,-4.2508 10.1458,0 c 15.1898,0 17.7804,0.9167 22.295,7.8891 2.2104,3.4139 3.7365,7.0007 3.7365,8.7819 0,1.6561 0.6388,5.1337 1.4196,7.728 1.1982,3.9815 1.2112,5.3704 0.083,8.9089 -0.735,2.3057 -1.5796,5.3193 -1.8771,6.6969 -0.3191,1.4777 -2.6354,4.0686 -5.6486,6.3181 -6.8719,5.1303 -10.6131,11.2318 -11.4831,18.7272 -0.5732,4.9388 -1.0137,5.9499 -2.5924,5.9499 -1.8346,0 -1.9018,1.2992 -1.9018,36.7566 0,24.4029 0.3768,37.9307 1.1209,40.25 0.7474,2.3294 1.3305,24.0412 1.75,65.1629 l 0.6291,61.6695 2.25,2.3949 c 1.9768,2.1042 2.25,3.4496 2.25,11.0806 0,8.0188 0.1535,8.6855 2,8.6855 1.9728,0 2,0.6667 2,49 0,48.3333 -0.027,49 -2,49 -1.873,0 -2,0.6667 -2,10.5 l 0,10.5 -11.5,0 -11.5,0 0,-10.5 z m 22,-59.5 0,-47 -10,0 -10,0 0,47 0,47 10,0 10,0 z m -4.6792,-299.0721 c 4.6087,-1.2798 10.8803,-6.7246 13.0764,-11.3525 0.8815,-1.8577 1.6028,-5.3963 1.6028,-7.8635 0,-5.8562 -4.6657,-12.9821 -11.5,-17.5641 -4.4884,-3.0092 -5.5058,-3.293 -9.9437,-2.7742 -2.8074,0.3283 -6.879,1.7768 -9.4223,3.3522 -13.7145,8.495 -11.557,30.4394 3.5212,35.8156 4.7041,1.6772 7.6894,1.7683 12.6656,0.3865 z M 672.4276,88.473514 c -5.9006,-0.4855 -10.4642,-1.4566 -13.0535,-2.7775 -2.1896,-1.1171 -7.9576,-6.3631 -12.8178,-11.6578 -4.8602,-5.2947 -10.0425,-10.2503 -11.5161,-11.0123 -5.7098,-2.9527 -49.6753,-4.96 -145.5402,-6.6451 -70.9438,-1.247 -157.2178,0.066 -158.6766,2.4152 -0.3721,0.5992 -4.4221,6.1637 -9,12.3654 l -8.3234,11.276 -15,0.018 c -23.3184,0.028 -61.1646,-2.7789 -71.2411,-5.2847 -3.6176,-0.8996 -5.2046,-1.9657 -6.9459,-4.666 -3.4158,-5.2968 -4.709,-6.3432 -10.2563,-8.2993 -10.176,-3.5882 -21.0613,-15.0742 -22.4365,-23.6746 -1.5495,-9.6897 -3.7125,-39.85439971 -5.2365,-73.0261 -0.897,-19.525 -2.0804,-36.0625 -2.6298,-36.75 -0.5493,-0.6871 -1.8437,-1.2496 -2.8763,-1.2496 -1.1701,0 -1.8776,-0.70748 -1.8776,-1.87756 0,-1.03265 -0.673,-2.43606 -1.4955,-3.11868 -0.8225,-0.68262 -3.3241,-4.45022 -5.5592,-8.37245 -2.2351,-3.92222 -5.3722,-8.93131 -6.9713,-11.13131 l -2.9076,-4 -0.043,-144.000004 -0.043,-144 -2.3744,-5.0995 c -2.5905,-5.5632 -6.1515,-8.6232 -12.7403,-10.9479 -2.3465,-0.8279 -5.0225,-2.1895 -5.9467,-3.0259 -3.04,-2.7511 -9.2831,-5.4267 -12.6626,-5.4267 -1.8264,0 -4.8359,-0.6331 -6.6878,-1.4069 -2.6645,-1.1133 -5.3185,-1.2154 -12.7179,-0.4894 -5.1429,0.5046 -65.0278,1.2014 -133.0777,1.5484 -103.0128,0.5254 -123.9989,0.4054 -125.3514,-0.7172 -0.8935,-0.7415 -3.1465,-3.7274 -5.0067,-6.6354 -1.8602,-2.9079 -6.7492,-8.8114 -10.8644,-13.1187 l -7.4823,-7.8316 -0.1075,-21.1907 -0.1074,-21.1907 3.5626,-4.8532 c 1.9594,-2.6693 6.054,-6.9818 9.099,-9.5832 3.045,-2.6014 6.2114,-6.0352 7.0364,-7.6306 1.3834,-2.6753 1.9338,-2.9008 7.0805,-2.9008 4.7351,0 6.1748,-0.4708 9.5044,-3.1079 2.1582,-1.7093 4.6306,-4.4742 5.4942,-6.1443 0.9164,-1.7721 2.3713,-10.1593 3.4942,-20.1421 3.2993,-29.334 5.0926,-32.7775 17.7177,-34.0215 l 7.0163,-0.6914 -1.0151,-3.1964 c -2.2993,-7.24 -3.0875,-8.4424 -6.6491,-10.1436 -4.9375,-2.3582 -20.1888,-3.1414 -31.6944,-1.6274 -4.95,0.6514 -17.325,2.7875 -27.5,4.7469 -13.8776,2.6725 -21.3734,3.5957 -30,3.6952 -10.9181,0.1258 -11.8014,-0.019 -17.456,-2.8675 -7.4426,-3.7488 -17.4103,-13.5217 -28.5581,-28 -19.7795,-25.6889 -30.0746,-34.588 -74.4859,-64.3859 -12.65,-8.4875 -23.3136,-15.9108 -23.697,-16.4962 -0.3833,-0.5854 -1.455,-4.2264 -2.3815,-8.0911 -0.9265,-3.8648 -3.6503,-10.8224 -6.053,-15.4615 -4.5517,-8.7885 -5.1012,-11.3631 -3.2788,-15.3628 0.983,-2.1574 1.5951,-2.3539 6.25,-2.006 9.3688,0.7003 18.9107,3.4349 39.9179,11.44 62.0681,23.652 137.3933,49.2533 176.1457,59.8678 18.8487,5.1628 23.3568,7.3454 32.4755,15.7231 l 7.3789,6.7792 6.6804,-3.316 c 7.8903,-3.9165 18.1598,-5.146 27.2331,-3.2602 10.7178,2.2275 18.2744,11.9257 22.2608,28.5696 0.9221,3.85 2.6887,9.025 3.9259,11.5 2.1272,4.2553 3.0621,4.9103 17.1958,12.0464 8.2205,4.1506 26.822,12.8187 41.3368,19.2626 l 26.3904,11.716 36.1096,-18.3897 c 43.7729,-22.2924 55.1184,-28.6851 68.1095,-38.3766 15.7411,-11.743 15.6514,-11.71 32,-11.7823 7.81,-0.034 14.815,-0.5258 15.8434,-1.1112 1.6812,-0.9569 1.5052,-1.3163 -2,-4.0848 -10.0643,-7.9489 -75.8421,-51.4976 -99.8434,-66.1022 -12.3332,-7.5047 -17.1851,-9.5142 -31.582,-13.0804 -15.57,-3.8569 -26.0597,-5.4891 -51.918,-8.0785 -27.839,-2.7879 -32.3875,-4.0306 -40.3542,-11.0254 -2.9924,-2.6274 -4.1588,-2.9939 -9.5278,-2.9939 l -6.118,0 -0.012,-3.75 c -0.01,-2.0625 -0.6762,-6.225 -1.4881,-9.25 -6.377277,-17.56838 8.672704,-29.80673 9.5,-44.8181 0,-2.2764 2.3355,-8.5695 3.4947,-9.4166 0.5529,-0.4041 4.4447,-0.7416 8.6483,-0.75 6.3301,-0.013 7.7663,-0.3159 8.3605,-1.7653 0.3947,-0.9625 0.9542,-12.351 1.2434,-25.3079 l 0.5258,-23.5578 4.9851,-3.6884 c 2.7418,-2.0286 6.843,-4.1819 9.1137,-4.785 2.2707,-0.6031 4.8035,-1.4539 5.6285,-1.8905 2.1641,-1.1454 1.6713,-8.7842 -0.8906,-13.806 -1.6883,-3.3094 -3.3223,-4.6911 -8.4304,-7.129 -9.2841,-4.4309 -38.9941,-14.2748 -92.679,-30.7078 -145.1376,-44.4267 -152.3669,-46.8314 -158.2159,-52.6276 -4.3476,-4.3084 -4.7071,-6.5367 -1.5341,-9.5091 3.468,-3.2486 7.1782,-4.2409 15.8573,-4.2409 11.0722,0 18.2823,1.6844 50.9274,11.8972 28.1848,8.8175 84.0085,25.5255 157.4653,47.1293 20.9,6.1467 38.7558,11.3995 39.6796,11.6729 1.1855,0.3508 2.2612,-0.6348 3.6572,-3.3512 2.7939,-5.4367 12.591,-15.9368 17.5106,-18.7671 15.8003,-9.0901 34.5118,1.8722 43.6523,25.5742 6.3799,16.5439 7.0861,16.866 42.4281,19.351 34.1701,2.4026 35.8884,2.8827 71.5722,19.9977 18.8328,9.0327 125.1071,52.8387 148.5,61.2114 2.2,0.7874 4.9,2.2674 6,3.289 1.8549,1.7227 10.3125,5.2875 20.1185,8.48 7.4419,2.4228 12.4761,5.5616 14.5457,9.0693 1.1183,1.8955 2.6427,3.4463 3.3875,3.4463 2.7796,0 6.6443,2.4783 8.0233,5.145 3.2188,6.2244 0.2798,14.2445 -6.3859,17.4263 -8.265,3.9451 -30.2542,0.061 -51.8313,-9.1551 -5.6867,-2.4289 -10.7042,-4.4162 -11.15,-4.4162 -2.2711,0 -31.5157,-10.1151 -36.7078,-12.6964 -10.0394,-4.9913 -39.9217,-12.1704 -66,-15.8561 -12.1409,-1.716 -20.5403,-3.8196 -33.8166,-8.4696 -4.8491,-1.6983 -11.1491,-3.3518 -14,-3.6743 -2.8509,-0.3225 -6.853,-1.4228 -8.8936,-2.445 -5.8286,-2.9198 -19.4994,-2.5637 -27.2898,0.7109 -3.3,1.3871 -8.0096,2.7406 -10.4657,3.0077 -2.4562,0.2671 -6.3486,1.589 -8.6499,2.9377 -3.9944,2.3409 -4.216,2.7259 -4.885,8.4904 -0.26318,6.23528 14.00222,28.94308 18.4633,30.9792 1.6837,0.6974 3.7755,2.8193 4.893,4.9631 2.5821,4.954 8.1443,22.4131 8.1443,25.5644 0,1.6255 0.5609,2.488 1.618,2.488 0.8899,0 3.1276,1.3254 4.9726,2.9454 3.1332,2.7509 8.8019,5.0362 12.5245,5.049 0.8884,0 2.6884,0.8441 4,1.869 28.90623,13.95847 56.48075,25.88743 83.8849,41.3167 15.66298,11.85899 47.23273,5.19125 64.2909,14.829 5.1596,3.0443 14.1039,4.1122 41.2091,4.9202 15.184,0.4527 26.3742,1.2257 28.5,1.9688 2.5768,0.9008 19.8544,1.3014 65.5,1.5188 43.0815,0.2052 63.066,0.6444 65.4934,1.4392 2.4341,0.797 18.8083,1.1453 54,1.1485 52.4384,0.01 55.3811,-0.1795 73.2415,-4.5888 3.1542,-0.7787 9.6792,-1.4225 14.5,-1.4306 10.885,-0.018 18.338,-1.7448 29.2651,-6.7792 102.71768,-39.06928 190.81039,-66.4731 268.86,-127.1969 3.1464,-0.021 13.5593,-6.6055 15.4119,-9.7453 1.0635,-1.8025 2.9504,-3.5325 4.1931,-3.8444 1.9658,-0.4934 2.3375,-1.4019 2.8591,-6.9877 0.7125,-7.6298 1.3332,-8.9092 8.3149,-17.1391 4.4133,-5.2023 5.3583,-6.9801 5.3457,-10.0561 -0.032,-7.7491 -0.3888,-7.7452 -17.2915,0.1874 -9.8878,4.6404 -12.2064,5.3303 -19.8808,5.9156 -4.7782,0.3644 -9.87,1.1121 -11.3151,1.6615 -1.4451,0.5495 -4.6528,0.999 -7.1281,0.999 -2.4754,0 -5.4834,0.5259 -6.6846,1.1688 -1.5497,0.8294 -14.9605,1.2412 -46.1842,1.4184 -47.8478,0.2714 -46.2273,0.193 -68.0004,3.2889 -12.9698,1.8441 -16.6241,2.0022 -27,1.1679 -29.6012,-2.3802 -84.8328,-4.4278 -163,-6.0429 -27.5,-0.5682 -55.1663,-1.3018 -61.4807,-1.6302 l -11.4807,-0.597 -3.6732,-3.6732 c -4.0407,-4.0407 -6.3624,-10.5612 -5.3698,-15.0807 1.597,-7.271 4.6182,-7.7365 71.5044,-11.0176 69.7611,-3.4221 150.9091,-10.0971 230.7394,-18.98 36.826,-4.0977 66.9199,-5.4078 106.7606,-4.6477 18.15,0.3463 35.2764,0.9061 38.0587,1.2441 l 5.0586,0.6145 2.1293,-8.6251 c 2.4979,-10.1182 4.4974,-13.2729 11.0968,-17.5077 9.6816,-6.2127 16.7616,-8.4746 26.7326,-8.5405 8.4278,-0.056 9.3363,0.1384 12.7189,2.7171 4.9422,3.7677 11.8669,13.7535 15.341,22.1224 3.9751,9.5758 6.2668,11.1005 16.685,11.1005 4.4985,0 18.0791,-0.5587 30.1791,-1.2416 31.537,-1.7798 66.9712,-2.8921 199,-6.2468 138.2645,-3.5131 179.6513,-4.8055 192.5,-6.0112 9.355,-0.8778 9.588,-0.8464 15.2646,2.0541 3.1706,1.62 6.6315,2.9455 7.691,2.9455 3.1398,0 3.3183,1.8097 0.3271,3.3173 -5.5645,2.8046 -22.4391,6.6827 -29.078,6.6827 -1.7462,0 -7.1191,1.3015 -11.9398,2.8923 -8.0434,2.6542 -10.6993,2.9842 -32.2649,4.009 -40.6394,1.9311 -93.5971,3.969 -223,8.5811 -120.5534,4.2968 -160.6042,6.0447 -163.4402,7.133 -0.7248,0.2781 -1.5923,2.1659 -1.9278,4.1951 -1.3114,7.9316 -1.3785,7.8381 7.618,10.6145 9.9437,3.0687 16.2515,6.7103 18.2212,10.5194 1.1439,2.212 4.4871,30.8947 4.5231,38.8056 0,0.9377 3.3611,1.25 13.4343,1.25 10.9913,0 13.7197,0.2912 15.0329,1.6043 1.9937,1.9938 5.0361,7.9863 5.9189,11.6585 0.3652,1.5195 3.0666,5.5947 6.0029,9.056 2.9363,3.4614 5.8513,7.251 6.4777,8.4215 1.4552,2.7191 1.5427,31.6369 0.1038,34.3254 -0.9001,1.682 -2.156,1.9343 -9.6284,1.9343 l -8.5932,0 -6.6763,6.2981 c -12.7397,12.0179 -21.3438,14.1739 -76.5669,19.1861 -35.1368,3.1891 -43.7944,4.6354 -60,10.0239 -25.4195,8.4523 -76.4227,30.7799 -133.781,58.5654 l -29.781,14.4265 0.281,8.3306 c 0.3412,10.1145 1.0105,10.8081 11.1164,11.5182 3.9405,0.2769 20.6646,1.4524 37.1646,2.6123 32.638,2.2944 43.0501,2.5407 46.82,1.1073 1.8149,-0.69 2.9783,-2.4954 4.487,-6.9628 1.1202,-3.3172 3.677,-8.5023 5.6817,-11.5226 4.0569,-6.112 13.9361,-15.7016 18.8276,-18.2755 3.9004,-2.0525 13.0456,-2.0188 18.0362,0.066 5.3093,2.2184 12.1331,9.0354 18.8262,18.8076 7.8375,11.4431 13.018,16.5771 17.5932,17.4355 1.9767,0.3708 12.6241,0.3854 23.661,0.033 85.8966,-2.7468 101.8345,-2.0541 146.5671,6.3698 36.4413,6.8625 73.4961,10.723 187,19.482 90.4508,6.98 88.1617,6.6729 90.787,12.1783 1.5832,3.3198 1.5548,3.6121 -0.7773,8.0081 -3.9334,7.4146 -8.6224,12.8994 -12.6951,14.8498 -3.2917,1.5764 -7.7899,1.9286 -32.8146,2.5691 -15.95,0.4083 -53.3,0.7773 -83,0.8201 -104.9203,0.1511 -138.1827,3.1016 -211.5,18.7609 -24.8445,5.3063 -35.1691,6.1861 -46,3.9197 -9.6953,-2.0288 -21.7469,-8.0313 -30.25,-15.0666 l -6.75,-5.5848 0,15.522 0,15.522 10.5672,0 c 10.5661,0 10.5674,3e-4 13.9264,3.25 1.8477,1.7875 5.1562,4.732 7.3523,6.5432 2.9872,2.4638 4.1607,4.2865 4.6591,7.2367 0.3665,2.1689 1.7527,5.5444 3.0806,7.5012 3.1175,4.5938 3.3894,14.6081 0.5502,20.2588 -0.7293,17.26552 -4.05,36.27875 -12.9138,42.2264 l -1.7476,6.4837 -19.0562,0.5 -19.0563,0.5 -6.9309,3.6174 c -11.6618,6.0864 -21.9885,9.2857 -29.931,9.2729 -5.8206,-0.01 -9.5957,-0.9012 -22.4065,-5.2931 l -15.4065,-5.2819 -21.0935,-1.0146 c -25.3055,-1.2173 -68.5168,-1.485 -74.0935,-0.4591 -14.651,2.6954 -22.6536,7.6583 -28.75,17.8297 l -2.75,4.5882 0,145.58585 0,145.585844 -3.4052,6.28443 c -4.85425,10.889283 -9.08232,20.746453 -20.8605,20.78442 l -5.9171,0 0.6521,22.25 c 0.3586,12.2375 1.0701,32.15 1.5811,44.2500003 2.1643,51.2517997 0.9646,59.2945997 -10.2934,69.0032997 -6.7315,5.8053 -10.5485,7.4067 -26.007,10.9113 -2.465,0.5589 -2.7516,1.0619 -2.7653,4.8545 -0.019,5.3379 -0.7956,6.5295 -5.0484,7.7492 -3.8862,1.1145 -43.7791,1.0799 -57.5087,-0.05 z M 512.5,-60.917186 c 13.6692,-3.49862 31.4403,-12.50335 42.792,-21.68299 22.0915,-17.864314 36.9819,-42.886454 43.379,-72.894714 1.3327,-6.2516 1.812,-12.86453 1.812,-25 0,-12.13547 -0.4793,-18.7484 -1.812,-25 -6.3971,-30.00826 -21.2875,-55.0304 -43.379,-72.89471 -11.1667,-9.02999 -29.0434,-18.1282 -42.792,-21.7786 -8.9533,-2.37721 -11.7794,-2.65511 -27,-2.65511 -15.2206,0 -18.0467,0.2779 -27,2.65511 -13.7486,3.6504 -31.6254,12.74861 -42.7921,21.7786 -22.0914,17.86431 -36.9818,42.88645 -43.3789,72.89471 -1.3327,6.2516 -1.812,12.86453 -1.812,25 0,12.13547 0.4793,18.7484 1.812,25 8.359,39.21129 30.9007,69.413804 64.171,85.979334 18.9149,9.41786 31.2708,12.1331 52.5,11.53696 10.2649,-0.28826 15.8963,-0.99245 23.5,-2.93859 z m -39.4394,-18.59909 c -9.8494,-1.37487 -19.6025,-4.65223 -30.0606,-10.10138 -26.5662,-13.842144 -44.9849,-38.630644 -52.2486,-70.317834 -2.9154,-12.71826 -2.9154,-34.40054 0,-47.1188 7.4448,-32.47729 26.0529,-57.04518 53.7486,-70.96307 15.551,-7.81486 23.6058,-9.72551 41,-9.72551 17.3942,0 25.449,1.91065 41,9.72551 27.6957,13.91789 46.3038,38.48578 53.7486,70.96307 2.9154,12.71826 2.9154,34.40054 0,47.1188 -5.5593,24.25192 -17.7754,44.69574 -35.5067,59.42103 -8.8552,7.354034 -26.3973,16.359924 -37.0408,19.016324 -9.2319,2.30409 -25.6167,3.24149 -34.6405,1.98186 z M 300,-348.49489 l 0,-25 -5.5,0 -5.5,0 0,25 0,25 5.5,0 5.5,0 z m 20,0 0,-25 -6,0 -6,0 0,25 0,25 6,0 6,0 z m 351,0 0,-25 -6,0 -6,0 0,25 0,25 6,0 6,0 z m 21,0 0,-25 -6.5,0 -6.5,0 0,25 0,25 6.5,0 6.5,0 z M -2.9677,-539.56759 c 4.3822,-1.69 7.9677,-3.4336 7.9677,-3.8748 0,-0.4412 -3.7125,-2.6107 -8.25,-4.8211 -5.7346,-2.7935 -8.474,-3.6701 -8.9847,-2.8751 -1.1478,1.7868 -0.9134,14.6437 0.267,14.6437 0.5677,0 4.6177,-1.3827 9,-3.0727 z m 900.327,-10.7604 c 2.0254,-9.1524 4.1193,-12.1267 11.1077,-15.7783 4.6125,-2.4101 5.5286,-3.3333 5.5306,-5.5735 0,-5.0341 -1.6799,-7.6308 -5.7,-8.7874 -2.0887,-0.601 -17.7476,-1.5049 -34.7976,-2.0088 -17.05,-0.5039 -36.85,-1.226 -44,-1.6046 l -13,-0.6883 2.5,1.9619 c 10.225,8.0241 75.0626,42.9954 76.0905,41.0407 0.3553,-0.6757 1.3763,-4.5285 2.2688,-8.5617 z"
       style="fill:#000000" />
  </g>
</svg>
